solid OpenSCAD_Model
  facet normal 0 0 -1
    outer loop
      vertex 13.5 -14.7224 0
      vertex 14 -15.5885 0
      vertex 13.5 -16.4545 0
    endloop
  endfacet
  facet normal 0 -0 -1
    outer loop
      vertex 10.5 -16.4545 0
      vertex 13 -20.7846 0
      vertex 9 -17.3205 0
    endloop
  endfacet
  facet normal 0 0 -1
    outer loop
      vertex -8 -15.5884 0
      vertex -7.49997 -11.2583 0
      vertex -6 -12.1243 0
    endloop
  endfacet
  facet normal 0 0 -1
    outer loop
      vertex 19.5 -0.866013 0
      vertex 17.5 0.866013 0
      vertex 19.5 0.866013 0
    endloop
  endfacet
  facet normal 0 0 -1
    outer loop
      vertex 10.5 -16.4545 0
      vertex 13.5 -14.7224 0
      vertex 13.5 -16.4545 0
    endloop
  endfacet
  facet normal 0 0 -1
    outer loop
      vertex 10.5 -16.4545 0
      vertex 9.49998 -14.7224 0
      vertex 13.5 -14.7224 0
    endloop
  endfacet
  facet normal 0 -0 -1
    outer loop
      vertex -13.5 16.4545 0
      vertex -13.5 14.7224 0
      vertex -14 15.5885 0
    endloop
  endfacet
  facet normal 0 0 -1
    outer loop
      vertex -21 -3.4641 0
      vertex -19.5 -4.33012 0
      vertex -20.5 -4.33012 0
    endloop
  endfacet
  facet normal 0 0 -1
    outer loop
      vertex 14.5 -9.52628 0
      vertex 15 -10.3923 0
      vertex 14.5 -11.2583 0
    endloop
  endfacet
  facet normal 0 0 -1
    outer loop
      vertex 7.49997 -11.2583 0
      vertex 14.5 -9.52628 0
      vertex 14.5 -11.2583 0
    endloop
  endfacet
  facet normal 0 0 -1
    outer loop
      vertex 17 -6.92819 0
      vertex 16.5 -7.79422 0
      vertex 15.5 -7.79422 0
    endloop
  endfacet
  facet normal 0 0 -1
    outer loop
      vertex 7.49997 -11.2583 0
      vertex 6.49998 -9.52628 0
      vertex 14.5 -9.52628 0
    endloop
  endfacet
  facet normal -0 -0 -1
    outer loop
      vertex 1.99998 1.73207 0
      vertex 2.5 0.866013 0
      vertex 0.500015 2.59807 0
    endloop
  endfacet
  facet normal 0 0 -1
    outer loop
      vertex 17.5 0.866013 0
      vertex 19.5 4.33012 0
      vertex 19.5 0.866013 0
    endloop
  endfacet
  facet normal -0 -0 -1
    outer loop
      vertex 24.5 0.866013 0
      vertex 24.5 -0.866013 0
      vertex 19.5 0.866013 0
    endloop
  endfacet
  facet normal 0 0 -1
    outer loop
      vertex 13.5 -0.866013 0
      vertex 17 -6.92819 0
      vertex 15.5 -7.79422 0
    endloop
  endfacet
  facet normal 0 0 -1
    outer loop
      vertex 11.5 -0.866013 0
      vertex 13.5 -0.866013 0
      vertex 15.5 -7.79422 0
    endloop
  endfacet
  facet normal 0 0 -1
    outer loop
      vertex 24.5 -0.866013 0
      vertex 19.5 -0.866013 0
      vertex 19.5 0.866013 0
    endloop
  endfacet
  facet normal 0 0 -1
    outer loop
      vertex 21 -3.4641 0
      vertex 20.5 -4.33012 0
      vertex 19.5 -4.33012 0
    endloop
  endfacet
  facet normal 0 0 -1
    outer loop
      vertex 19.5 -0.866013 0
      vertex 21 -3.4641 0
      vertex 19.5 -4.33012 0
    endloop
  endfacet
  facet normal 0 0 -1
    outer loop
      vertex 17.5 -0.866013 0
      vertex 19.5 -0.866013 0
      vertex 19.5 -4.33012 0
    endloop
  endfacet
  facet normal 0 0 -1
    outer loop
      vertex 1 17.3205 0
      vertex 6 12.1243 0
      vertex 5 10.3923 0
    endloop
  endfacet
  facet normal 0 0 -1
    outer loop
      vertex 24.5 0.866013 0
      vertex 25 0 0
      vertex 24.5 -0.866013 0
    endloop
  endfacet
  facet normal 0 0 -1
    outer loop
      vertex 19.5 4.33012 0
      vertex 20.5 4.33012 0
      vertex 21 3.4641 0
    endloop
  endfacet
  facet normal 0 0 -1
    outer loop
      vertex 19.5 0.866013 0
      vertex 19.5 4.33012 0
      vertex 21 3.4641 0
    endloop
  endfacet
  facet normal 0 0 -1
    outer loop
      vertex 8 15.5884 0
      vertex 6 19.0526 0
      vertex 9 17.3205 0
    endloop
  endfacet
  facet normal 0 0 -1
    outer loop
      vertex 17.5 -0.866013 0
      vertex 13.5 0.866013 0
      vertex 17.5 0.866013 0
    endloop
  endfacet
  facet normal 0 0 -1
    outer loop
      vertex 17.5 -0.866013 0
      vertex 13.5 -0.866013 0
      vertex 13.5 0.866013 0
    endloop
  endfacet
  facet normal 0 0 -1
    outer loop
      vertex 17.5 -0.866013 0
      vertex 17.5 0.866013 0
      vertex 19.5 -0.866013 0
    endloop
  endfacet
  facet normal 0 0 -1
    outer loop
      vertex 11.5 0.866013 0
      vertex 13.5 -0.866013 0
      vertex 11.5 -0.866013 0
    endloop
  endfacet
  facet normal -0 -0 -1
    outer loop
      vertex 13.5 0.866013 0
      vertex 13.5 -0.866013 0
      vertex 11.5 0.866013 0
    endloop
  endfacet
  facet normal -0 -0 -1
    outer loop
      vertex 16.5 7.79422 0
      vertex 17 6.92819 0
      vertex 15.5 7.79422 0
    endloop
  endfacet
  facet normal 0 -0 -1
    outer loop
      vertex 15.5 7.79422 0
      vertex 17 6.92819 0
      vertex 13.5 0.866013 0
    endloop
  endfacet
  facet normal 0 0 -1
    outer loop
      vertex 14.5 11.2583 0
      vertex 15 10.3923 0
      vertex 14.5 9.52628 0
    endloop
  endfacet
  facet normal 0 0 -1
    outer loop
      vertex 2.5 0.866013 0
      vertex 11.5 0.866013 0
      vertex 11.5 -0.866013 0
    endloop
  endfacet
  facet normal 0 0 -1
    outer loop
      vertex 11.5 0.866013 0
      vertex 15.5 7.79422 0
      vertex 13.5 0.866013 0
    endloop
  endfacet
  facet normal 0 0 -1
    outer loop
      vertex 2.5 -0.866013 0
      vertex 2.5 0.866013 0
      vertex 11.5 -0.866013 0
    endloop
  endfacet
  facet normal 0 0 -1
    outer loop
      vertex 8 15.5884 0
      vertex 9 17.3205 0
      vertex 10.5 16.4545 0
    endloop
  endfacet
  facet normal 0 0 -1
    outer loop
      vertex 0.500015 2.59807 0
      vertex 2.5 0.866013 0
      vertex 2.5 -0.866013 0
    endloop
  endfacet
  facet normal 0 0 -1
    outer loop
      vertex 10.5 16.4545 0
      vertex 9 17.3205 0
      vertex 13 20.7846 0
    endloop
  endfacet
  facet normal 0 0 -1
    outer loop
      vertex 7.49997 11.2583 0
      vertex 14.5 11.2583 0
      vertex 14.5 9.52628 0
    endloop
  endfacet
  facet normal 0 0 -1
    outer loop
      vertex 6.49998 9.52628 0
      vertex 7.49997 11.2583 0
      vertex 14.5 9.52628 0
    endloop
  endfacet
  facet normal -0 0 -1
    outer loop
      vertex 13 20.7846 0
      vertex 9 17.3205 0
      vertex 11.5 21.6506 0
    endloop
  endfacet
  facet normal 0 0 -1
    outer loop
      vertex 13.5 16.4545 0
      vertex 14 15.5885 0
      vertex 13.5 14.7224 0
    endloop
  endfacet
  facet normal 0 0 -1
    outer loop
      vertex 10.5 16.4545 0
      vertex 13.5 16.4545 0
      vertex 13.5 14.7224 0
    endloop
  endfacet
  facet normal 0 0 -1
    outer loop
      vertex 9.49998 14.7224 0
      vertex 10.5 16.4545 0
      vertex 13.5 14.7224 0
    endloop
  endfacet
  facet normal 0 0 -1
    outer loop
      vertex -8 15.5884 0
      vertex -10.5 16.4545 0
      vertex -9 17.3205 0
    endloop
  endfacet
  facet normal 0 0 -1
    outer loop
      vertex 11.5 21.6506 0
      vertex 12.5 21.6506 0
      vertex 13 20.7846 0
    endloop
  endfacet
  facet normal 0 0 -1
    outer loop
      vertex 6 19.0526 0
      vertex 6.5 19.9186 0
      vertex 7.5 19.9186 0
    endloop
  endfacet
  facet normal 0 0 -1
    outer loop
      vertex 9 17.3205 0
      vertex 6 19.0526 0
      vertex 7.5 19.9186 0
    endloop
  endfacet
  facet normal 0 -0 -1
    outer loop
      vertex -12.5 21.6506 0
      vertex -11.5 21.6506 0
      vertex -13 20.7846 0
    endloop
  endfacet
  facet normal -0 0 -1
    outer loop
      vertex 9.49998 14.7224 0
      vertex 7.49997 11.2583 0
      vertex 8 15.5884 0
    endloop
  endfacet
  facet normal 0 0 -1
    outer loop
      vertex 8 15.5884 0
      vertex 7.49997 11.2583 0
      vertex 6 12.1243 0
    endloop
  endfacet
  facet normal 0 0 -1
    outer loop
      vertex 9.49998 14.7224 0
      vertex 8 15.5884 0
      vertex 10.5 16.4545 0
    endloop
  endfacet
  facet normal 0 0 -1
    outer loop
      vertex 5 10.3923 0
      vertex 7.49997 11.2583 0
      vertex 6.49998 9.52628 0
    endloop
  endfacet
  facet normal 0 -0 -1
    outer loop
      vertex 6 12.1243 0
      vertex 7.49997 11.2583 0
      vertex 5 10.3923 0
    endloop
  endfacet
  facet normal 0 -0 -1
    outer loop
      vertex 1.5 18.1865 0
      vertex 2.5 18.1865 0
      vertex 1 17.3205 0
    endloop
  endfacet
  facet normal 0 0 -1
    outer loop
      vertex 1 17.3205 0
      vertex 2.5 18.1865 0
      vertex 6 12.1243 0
    endloop
  endfacet
  facet normal 0 0 -1
    outer loop
      vertex 0.500015 2.59807 0
      vertex 5 10.3923 0
      vertex 1.99998 1.73207 0
    endloop
  endfacet
  facet normal 0 0 -1
    outer loop
      vertex -2.5 18.1865 0
      vertex -1.5 18.1865 0
      vertex -1 17.3205 0
    endloop
  endfacet
  facet normal 0 -0 -1
    outer loop
      vertex 5 10.3923 0
      vertex 6.49998 9.52628 0
      vertex 1.99998 1.73207 0
    endloop
  endfacet
  facet normal 0 -0 -1
    outer loop
      vertex -0.500015 2.59807 0
      vertex -0.500015 -2.59807 0
      vertex -2.5 0.866013 0
    endloop
  endfacet
  facet normal 0 -0 -1
    outer loop
      vertex -1.99998 1.73207 0
      vertex -0.500015 2.59807 0
      vertex -2.5 0.866013 0
    endloop
  endfacet
  facet normal 0 0 -1
    outer loop
      vertex -13.5 14.7224 0
      vertex -10.5 16.4545 0
      vertex -9.49998 14.7224 0
    endloop
  endfacet
  facet normal -0 0 -1
    outer loop
      vertex -9 17.3205 0
      vertex -10.5 16.4545 0
      vertex -13 20.7846 0
    endloop
  endfacet
  facet normal 0 0 -1
    outer loop
      vertex -6 12.1243 0
      vertex -2.5 18.1865 0
      vertex -1 17.3205 0
    endloop
  endfacet
  facet normal 0 0 -1
    outer loop
      vertex -5 10.3923 0
      vertex -6 12.1243 0
      vertex -1 17.3205 0
    endloop
  endfacet
  facet normal 0 -0 -1
    outer loop
      vertex -11.5 21.6506 0
      vertex -9 17.3205 0
      vertex -13 20.7846 0
    endloop
  endfacet
  facet normal 0 0 -1
    outer loop
      vertex -7.5 19.9186 0
      vertex -6.5 19.9186 0
      vertex -6 19.0526 0
    endloop
  endfacet
  facet normal 0 0 -1
    outer loop
      vertex -9 17.3205 0
      vertex -7.5 19.9186 0
      vertex -6 19.0526 0
    endloop
  endfacet
  facet normal 0 0 -1
    outer loop
      vertex -8 15.5884 0
      vertex -9 17.3205 0
      vertex -6 19.0526 0
    endloop
  endfacet
  facet normal 0 0 -1
    outer loop
      vertex -17.5 0.866013 0
      vertex -13.5 -0.866013 0
      vertex -17.5 -0.866013 0
    endloop
  endfacet
  facet normal 0 0 -1
    outer loop
      vertex -13.5 16.4545 0
      vertex -10.5 16.4545 0
      vertex -13.5 14.7224 0
    endloop
  endfacet
  facet normal 0 0 -1
    outer loop
      vertex -10.5 16.4545 0
      vertex -8 15.5884 0
      vertex -9.49998 14.7224 0
    endloop
  endfacet
  facet normal 0 0 -1
    outer loop
      vertex -7.49997 11.2583 0
      vertex -8 15.5884 0
      vertex -6 12.1243 0
    endloop
  endfacet
  facet normal 0 0 -1
    outer loop
      vertex -19.5 0.866013 0
      vertex -19.5 4.33012 0
      vertex -17.5 0.866013 0
    endloop
  endfacet
  facet normal 0 0 -1
    outer loop
      vertex -15 10.3923 0
      vertex -14.5 11.2583 0
      vertex -14.5 9.52628 0
    endloop
  endfacet
  facet normal 0 0 -1
    outer loop
      vertex -14.5 9.52628 0
      vertex -14.5 11.2583 0
      vertex -7.49997 11.2583 0
    endloop
  endfacet
  facet normal 0 0 -1
    outer loop
      vertex -9.49998 14.7224 0
      vertex -8 15.5884 0
      vertex -7.49997 11.2583 0
    endloop
  endfacet
  facet normal 0 0 -1
    outer loop
      vertex -6.49998 9.52628 0
      vertex -7.49997 11.2583 0
      vertex -5 10.3923 0
    endloop
  endfacet
  facet normal 0 0 -1
    outer loop
      vertex -7.49997 11.2583 0
      vertex -6 12.1243 0
      vertex -5 10.3923 0
    endloop
  endfacet
  facet normal 0 0 -1
    outer loop
      vertex -0.500015 2.59807 0
      vertex 0.500015 -2.59807 0
      vertex -0.500015 -2.59807 0
    endloop
  endfacet
  facet normal 0 0 -1
    outer loop
      vertex -17 -6.92819 0
      vertex -15.5 -7.79422 0
      vertex -16.5 -7.79422 0
    endloop
  endfacet
  facet normal 0 0 -1
    outer loop
      vertex -21 -3.4641 0
      vertex -19.5 -0.866013 0
      vertex -19.5 -4.33012 0
    endloop
  endfacet
  facet normal 0 0 -1
    outer loop
      vertex -17 6.92819 0
      vertex -16.5 7.79422 0
      vertex -15.5 7.79422 0
    endloop
  endfacet
  facet normal 0 0 -1
    outer loop
      vertex -1.99998 1.73207 0
      vertex -6.49998 9.52628 0
      vertex -5 10.3923 0
    endloop
  endfacet
  facet normal 0 0 -1
    outer loop
      vertex -6.49998 9.52628 0
      vertex -14.5 9.52628 0
      vertex -7.49997 11.2583 0
    endloop
  endfacet
  facet normal 0 0 -1
    outer loop
      vertex -2.5 0.866013 0
      vertex -0.500015 -2.59807 0
      vertex -2.5 -0.866013 0
    endloop
  endfacet
  facet normal 0 0 -1
    outer loop
      vertex -1.99998 1.73207 0
      vertex -5 10.3923 0
      vertex -0.500015 2.59807 0
    endloop
  endfacet
  facet normal -0 -0 -1
    outer loop
      vertex -11.5 0.866013 0
      vertex -11.5 -0.866013 0
      vertex -13.5 0.866013 0
    endloop
  endfacet
  facet normal 0 0 -1
    outer loop
      vertex -19.5 -0.866013 0
      vertex -19.5 0.866013 0
      vertex -17.5 -0.866013 0
    endloop
  endfacet
  facet normal 0 0 -1
    outer loop
      vertex -13.5 0.866013 0
      vertex -17 6.92819 0
      vertex -15.5 7.79422 0
    endloop
  endfacet
  facet normal 0 0 -1
    outer loop
      vertex -11.5 0.866013 0
      vertex -13.5 0.866013 0
      vertex -15.5 7.79422 0
    endloop
  endfacet
  facet normal 0 0 -1
    outer loop
      vertex -21 3.4641 0
      vertex -20.5 4.33012 0
      vertex -19.5 4.33012 0
    endloop
  endfacet
  facet normal 0 0 -1
    outer loop
      vertex -19.5 0.866013 0
      vertex -21 3.4641 0
      vertex -19.5 4.33012 0
    endloop
  endfacet
  facet normal 0 0 -1
    outer loop
      vertex -24.5 0.866013 0
      vertex -19.5 -0.866013 0
      vertex -24.5 -0.866013 0
    endloop
  endfacet
  facet normal 0 0 -1
    outer loop
      vertex -25 0 0
      vertex -24.5 0.866013 0
      vertex -24.5 -0.866013 0
    endloop
  endfacet
  facet normal 0 0 -1
    outer loop
      vertex -24.5 0.866013 0
      vertex -19.5 0.866013 0
      vertex -19.5 -0.866013 0
    endloop
  endfacet
  facet normal 0 0 -1
    outer loop
      vertex -11.5 0.866013 0
      vertex -2.5 -0.866013 0
      vertex -11.5 -0.866013 0
    endloop
  endfacet
  facet normal 0 0 -1
    outer loop
      vertex -19.5 -4.33012 0
      vertex -19.5 -0.866013 0
      vertex -17.5 -0.866013 0
    endloop
  endfacet
  facet normal 0 0 -1
    outer loop
      vertex -5 -10.3923 0
      vertex -1.99998 -1.73207 0
      vertex -0.500015 -2.59807 0
    endloop
  endfacet
  facet normal 0 0 -1
    outer loop
      vertex -17.5 0.866013 0
      vertex -13.5 0.866013 0
      vertex -13.5 -0.866013 0
    endloop
  endfacet
  facet normal -0 -0 -1
    outer loop
      vertex -17.5 0.866013 0
      vertex -17.5 -0.866013 0
      vertex -19.5 0.866013 0
    endloop
  endfacet
  facet normal 0 0 -1
    outer loop
      vertex -13.5 -0.866013 0
      vertex -15.5 -7.79422 0
      vertex -17 -6.92819 0
    endloop
  endfacet
  facet normal 0 0 -1
    outer loop
      vertex -13.5 -0.866013 0
      vertex -13.5 0.866013 0
      vertex -11.5 -0.866013 0
    endloop
  endfacet
  facet normal 0 0 -1
    outer loop
      vertex -9 -17.3205 0
      vertex -8 -15.5884 0
      vertex -6 -19.0526 0
    endloop
  endfacet
  facet normal 0 0 -1
    outer loop
      vertex -7.5 -19.9186 0
      vertex -6 -19.0526 0
      vertex -6.5 -19.9186 0
    endloop
  endfacet
  facet normal 0 0 -1
    outer loop
      vertex -1.99998 -1.73207 0
      vertex -2.5 -0.866013 0
      vertex -0.500015 -2.59807 0
    endloop
  endfacet
  facet normal 0 0 -1
    outer loop
      vertex -11.5 0.866013 0
      vertex -2.5 0.866013 0
      vertex -2.5 -0.866013 0
    endloop
  endfacet
  facet normal 0 -0 -1
    outer loop
      vertex -13.5 -0.866013 0
      vertex -11.5 -0.866013 0
      vertex -15.5 -7.79422 0
    endloop
  endfacet
  facet normal -0 -0 -1
    outer loop
      vertex 0.500015 2.59807 0
      vertex 0.500015 -2.59807 0
      vertex -0.500015 2.59807 0
    endloop
  endfacet
  facet normal 0 0 -1
    outer loop
      vertex -1.99998 -1.73207 0
      vertex -5 -10.3923 0
      vertex -6.49998 -9.52628 0
    endloop
  endfacet
  facet normal 0 0 -1
    outer loop
      vertex -15 -10.3923 0
      vertex -14.5 -9.52628 0
      vertex -14.5 -11.2583 0
    endloop
  endfacet
  facet normal 0 0 -1
    outer loop
      vertex -14.5 -11.2583 0
      vertex -14.5 -9.52628 0
      vertex -7.49997 -11.2583 0
    endloop
  endfacet
  facet normal -0 0 -1
    outer loop
      vertex -9 -17.3205 0
      vertex -13 -20.7846 0
      vertex -10.5 -16.4545 0
    endloop
  endfacet
  facet normal 0 0 -1
    outer loop
      vertex -7.49997 -11.2583 0
      vertex -14.5 -9.52628 0
      vertex -6.49998 -9.52628 0
    endloop
  endfacet
  facet normal 0 0 -1
    outer loop
      vertex -7.5 -19.9186 0
      vertex -9 -17.3205 0
      vertex -6 -19.0526 0
    endloop
  endfacet
  facet normal 0 0 -1
    outer loop
      vertex -14 -15.5885 0
      vertex -13.5 -14.7224 0
      vertex -13.5 -16.4545 0
    endloop
  endfacet
  facet normal 0 0 -1
    outer loop
      vertex -13.5 -16.4545 0
      vertex -13.5 -14.7224 0
      vertex -10.5 -16.4545 0
    endloop
  endfacet
  facet normal 0 0 -1
    outer loop
      vertex -13 -20.7846 0
      vertex -9 -17.3205 0
      vertex -11.5 -21.6506 0
    endloop
  endfacet
  facet normal 0 0 -1
    outer loop
      vertex -10.5 -16.4545 0
      vertex -13.5 -14.7224 0
      vertex -9.49998 -14.7224 0
    endloop
  endfacet
  facet normal 0 0 -1
    outer loop
      vertex -12.5 -21.6506 0
      vertex -13 -20.7846 0
      vertex -11.5 -21.6506 0
    endloop
  endfacet
  facet normal 0 0 -1
    outer loop
      vertex -2.5 -18.1865 0
      vertex -6 -12.1243 0
      vertex -1 -17.3205 0
    endloop
  endfacet
  facet normal 0 0 -1
    outer loop
      vertex -8 -15.5884 0
      vertex -9 -17.3205 0
      vertex -10.5 -16.4545 0
    endloop
  endfacet
  facet normal 0 0 -1
    outer loop
      vertex 6 -12.1243 0
      vertex 7.49997 -11.2583 0
      vertex 8 -15.5884 0
    endloop
  endfacet
  facet normal 0 0 -1
    outer loop
      vertex 13 -20.7846 0
      vertex 12.5 -21.6506 0
      vertex 11.5 -21.6506 0
    endloop
  endfacet
  facet normal 0 0 -1
    outer loop
      vertex -2.5 -18.1865 0
      vertex -1 -17.3205 0
      vertex -1.5 -18.1865 0
    endloop
  endfacet
  facet normal 0 0 -1
    outer loop
      vertex -10.5 -16.4545 0
      vertex -9.49998 -14.7224 0
      vertex -8 -15.5884 0
    endloop
  endfacet
  facet normal 0 0 -1
    outer loop
      vertex -8 -15.5884 0
      vertex -9.49998 -14.7224 0
      vertex -7.49997 -11.2583 0
    endloop
  endfacet
  facet normal 0 0 -1
    outer loop
      vertex -1 -17.3205 0
      vertex -6 -12.1243 0
      vertex -5 -10.3923 0
    endloop
  endfacet
  facet normal 0 0 -1
    outer loop
      vertex -6 -12.1243 0
      vertex -7.49997 -11.2583 0
      vertex -5 -10.3923 0
    endloop
  endfacet
  facet normal 0 0 -1
    outer loop
      vertex 6 -12.1243 0
      vertex 2.5 -18.1865 0
      vertex 1 -17.3205 0
    endloop
  endfacet
  facet normal 0 -0 -1
    outer loop
      vertex 6.49998 -9.52628 0
      vertex 7.49997 -11.2583 0
      vertex 5 -10.3923 0
    endloop
  endfacet
  facet normal 0 0 -1
    outer loop
      vertex 5 -10.3923 0
      vertex 7.49997 -11.2583 0
      vertex 6 -12.1243 0
    endloop
  endfacet
  facet normal -0 0 -1
    outer loop
      vertex -5 -10.3923 0
      vertex -7.49997 -11.2583 0
      vertex -6.49998 -9.52628 0
    endloop
  endfacet
  facet normal 0 0 -1
    outer loop
      vertex 0.500015 2.59807 0
      vertex 2.5 -0.866013 0
      vertex 0.500015 -2.59807 0
    endloop
  endfacet
  facet normal 0 0 -1
    outer loop
      vertex 5 -10.3923 0
      vertex 0.500015 -2.59807 0
      vertex 1.99998 -1.73207 0
    endloop
  endfacet
  facet normal 0 0 -1
    outer loop
      vertex 0.500015 -2.59807 0
      vertex 2.5 -0.866013 0
      vertex 1.99998 -1.73207 0
    endloop
  endfacet
  facet normal 0 0 -1
    outer loop
      vertex 5 -10.3923 0
      vertex 1.99998 -1.73207 0
      vertex 6.49998 -9.52628 0
    endloop
  endfacet
  facet normal 0 0 -1
    outer loop
      vertex 1 -17.3205 0
      vertex 2.5 -18.1865 0
      vertex 1.5 -18.1865 0
    endloop
  endfacet
  facet normal 0 -0 -1
    outer loop
      vertex 9.49998 -14.7224 0
      vertex 10.5 -16.4545 0
      vertex 8 -15.5884 0
    endloop
  endfacet
  facet normal 0 0 -1
    outer loop
      vertex 9 -17.3205 0
      vertex 7.5 -19.9186 0
      vertex 6 -19.0526 0
    endloop
  endfacet
  facet normal 0 -0 -1
    outer loop
      vertex 5 -10.3923 0
      vertex 6 -12.1243 0
      vertex 1 -17.3205 0
    endloop
  endfacet
  facet normal -0 0 -1
    outer loop
      vertex 9.49998 -14.7224 0
      vertex 8 -15.5884 0
      vertex 7.49997 -11.2583 0
    endloop
  endfacet
  facet normal 0 0 -1
    outer loop
      vertex 7.5 -19.9186 0
      vertex 6.5 -19.9186 0
      vertex 6 -19.0526 0
    endloop
  endfacet
  facet normal 0 0 -1
    outer loop
      vertex 11.5 -21.6506 0
      vertex 9 -17.3205 0
      vertex 13 -20.7846 0
    endloop
  endfacet
  facet normal 0 0 -1
    outer loop
      vertex 6 -19.0526 0
      vertex 8 -15.5884 0
      vertex 9 -17.3205 0
    endloop
  endfacet
  facet normal 0 0 -1
    outer loop
      vertex 9 -17.3205 0
      vertex 8 -15.5884 0
      vertex 10.5 -16.4545 0
    endloop
  endfacet
  facet normal 0 0 1
    outer loop
      vertex 13.5 -16.4545 7.5
      vertex 14 -15.5885 7.5
      vertex 13.5 -14.7224 7.5
    endloop
  endfacet
  facet normal -0 0 1
    outer loop
      vertex 9 -17.3205 7.5
      vertex 13 -20.7846 7.5
      vertex 10.5 -16.4545 7.5
    endloop
  endfacet
  facet normal 0 0 1
    outer loop
      vertex -6 -12.1243 7.5
      vertex -7.49997 -11.2583 7.5
      vertex -8 -15.5884 7.5
    endloop
  endfacet
  facet normal 0 0 1
    outer loop
      vertex 19.5 0.866013 7.5
      vertex 17.5 0.866013 7.5
      vertex 19.5 -0.866013 7.5
    endloop
  endfacet
  facet normal 0 -0 1
    outer loop
      vertex 13.5 -16.4545 7.5
      vertex 13.5 -14.7224 7.5
      vertex 10.5 -16.4545 7.5
    endloop
  endfacet
  facet normal 0 0 1
    outer loop
      vertex 13.5 -14.7224 7.5
      vertex 9.49998 -14.7224 7.5
      vertex 10.5 -16.4545 7.5
    endloop
  endfacet
  facet normal -0 0 1
    outer loop
      vertex -14 15.5885 7.5
      vertex -13.5 14.7224 7.5
      vertex -13.5 16.4545 7.5
    endloop
  endfacet
  facet normal 0 -0 1
    outer loop
      vertex -20.5 -4.33012 7.5
      vertex -19.5 -4.33012 7.5
      vertex -21 -3.4641 7.5
    endloop
  endfacet
  facet normal 0 0 1
    outer loop
      vertex 14.5 -11.2583 7.5
      vertex 15 -10.3923 7.5
      vertex 14.5 -9.52628 7.5
    endloop
  endfacet
  facet normal 0 -0 1
    outer loop
      vertex 14.5 -11.2583 7.5
      vertex 14.5 -9.52628 7.5
      vertex 7.49997 -11.2583 7.5
    endloop
  endfacet
  facet normal 0 0 1
    outer loop
      vertex 15.5 -7.79422 7.5
      vertex 16.5 -7.79422 7.5
      vertex 17 -6.92819 7.5
    endloop
  endfacet
  facet normal 0 0 1
    outer loop
      vertex 14.5 -9.52628 7.5
      vertex 6.49998 -9.52628 7.5
      vertex 7.49997 -11.2583 7.5
    endloop
  endfacet
  facet normal 0 0 1
    outer loop
      vertex 0.500015 2.59807 7.5
      vertex 2.5 0.866013 7.5
      vertex 1.99998 1.73207 7.5
    endloop
  endfacet
  facet normal 0 -0 1
    outer loop
      vertex 19.5 0.866013 7.5
      vertex 19.5 4.33012 7.5
      vertex 17.5 0.866013 7.5
    endloop
  endfacet
  facet normal -0 0 1
    outer loop
      vertex 19.5 0.866013 7.5
      vertex 24.5 -0.866013 7.5
      vertex 24.5 0.866013 7.5
    endloop
  endfacet
  facet normal 0 -0 1
    outer loop
      vertex 15.5 -7.79422 7.5
      vertex 17 -6.92819 7.5
      vertex 13.5 -0.866013 7.5
    endloop
  endfacet
  facet normal 0 0 1
    outer loop
      vertex 15.5 -7.79422 7.5
      vertex 13.5 -0.866013 7.5
      vertex 11.5 -0.866013 7.5
    endloop
  endfacet
  facet normal 0 0 1
    outer loop
      vertex 19.5 0.866013 7.5
      vertex 19.5 -0.866013 7.5
      vertex 24.5 -0.866013 7.5
    endloop
  endfacet
  facet normal 0 0 1
    outer loop
      vertex 19.5 -4.33012 7.5
      vertex 20.5 -4.33012 7.5
      vertex 21 -3.4641 7.5
    endloop
  endfacet
  facet normal 0 0 1
    outer loop
      vertex 19.5 -4.33012 7.5
      vertex 21 -3.4641 7.5
      vertex 19.5 -0.866013 7.5
    endloop
  endfacet
  facet normal 0 -0 1
    outer loop
      vertex 19.5 -4.33012 7.5
      vertex 19.5 -0.866013 7.5
      vertex 17.5 -0.866013 7.5
    endloop
  endfacet
  facet normal 0 -0 1
    outer loop
      vertex 5 10.3923 7.5
      vertex 6 12.1243 7.5
      vertex 1 17.3205 7.5
    endloop
  endfacet
  facet normal 0 0 1
    outer loop
      vertex 24.5 -0.866013 7.5
      vertex 25 0 7.5
      vertex 24.5 0.866013 7.5
    endloop
  endfacet
  facet normal 0 0 1
    outer loop
      vertex 21 3.4641 7.5
      vertex 20.5 4.33012 7.5
      vertex 19.5 4.33012 7.5
    endloop
  endfacet
  facet normal 0 0 1
    outer loop
      vertex 21 3.4641 7.5
      vertex 19.5 4.33012 7.5
      vertex 19.5 0.866013 7.5
    endloop
  endfacet
  facet normal 0 0 1
    outer loop
      vertex 9 17.3205 7.5
      vertex 6 19.0526 7.5
      vertex 8 15.5884 7.5
    endloop
  endfacet
  facet normal 0 0 1
    outer loop
      vertex 17.5 0.866013 7.5
      vertex 13.5 0.866013 7.5
      vertex 17.5 -0.866013 7.5
    endloop
  endfacet
  facet normal 0 0 1
    outer loop
      vertex 13.5 0.866013 7.5
      vertex 13.5 -0.866013 7.5
      vertex 17.5 -0.866013 7.5
    endloop
  endfacet
  facet normal 0 0 1
    outer loop
      vertex 19.5 -0.866013 7.5
      vertex 17.5 0.866013 7.5
      vertex 17.5 -0.866013 7.5
    endloop
  endfacet
  facet normal 0 0 1
    outer loop
      vertex 11.5 -0.866013 7.5
      vertex 13.5 -0.866013 7.5
      vertex 11.5 0.866013 7.5
    endloop
  endfacet
  facet normal -0 0 1
    outer loop
      vertex 11.5 0.866013 7.5
      vertex 13.5 -0.866013 7.5
      vertex 13.5 0.866013 7.5
    endloop
  endfacet
  facet normal -0 0 1
    outer loop
      vertex 15.5 7.79422 7.5
      vertex 17 6.92819 7.5
      vertex 16.5 7.79422 7.5
    endloop
  endfacet
  facet normal 0 0 1
    outer loop
      vertex 13.5 0.866013 7.5
      vertex 17 6.92819 7.5
      vertex 15.5 7.79422 7.5
    endloop
  endfacet
  facet normal 0 0 1
    outer loop
      vertex 14.5 9.52628 7.5
      vertex 15 10.3923 7.5
      vertex 14.5 11.2583 7.5
    endloop
  endfacet
  facet normal 0 -0 1
    outer loop
      vertex 11.5 -0.866013 7.5
      vertex 11.5 0.866013 7.5
      vertex 2.5 0.866013 7.5
    endloop
  endfacet
  facet normal 0 -0 1
    outer loop
      vertex 13.5 0.866013 7.5
      vertex 15.5 7.79422 7.5
      vertex 11.5 0.866013 7.5
    endloop
  endfacet
  facet normal 0 0 1
    outer loop
      vertex 11.5 -0.866013 7.5
      vertex 2.5 0.866013 7.5
      vertex 2.5 -0.866013 7.5
    endloop
  endfacet
  facet normal 0 0 1
    outer loop
      vertex 10.5 16.4545 7.5
      vertex 9 17.3205 7.5
      vertex 8 15.5884 7.5
    endloop
  endfacet
  facet normal 0 -0 1
    outer loop
      vertex 2.5 -0.866013 7.5
      vertex 2.5 0.866013 7.5
      vertex 0.500015 2.59807 7.5
    endloop
  endfacet
  facet normal 0 0 1
    outer loop
      vertex 13 20.7846 7.5
      vertex 9 17.3205 7.5
      vertex 10.5 16.4545 7.5
    endloop
  endfacet
  facet normal 0 -0 1
    outer loop
      vertex 14.5 9.52628 7.5
      vertex 14.5 11.2583 7.5
      vertex 7.49997 11.2583 7.5
    endloop
  endfacet
  facet normal 0 0 1
    outer loop
      vertex 14.5 9.52628 7.5
      vertex 7.49997 11.2583 7.5
      vertex 6.49998 9.52628 7.5
    endloop
  endfacet
  facet normal 0 0 1
    outer loop
      vertex 11.5 21.6506 7.5
      vertex 9 17.3205 7.5
      vertex 13 20.7846 7.5
    endloop
  endfacet
  facet normal 0 0 1
    outer loop
      vertex 13.5 14.7224 7.5
      vertex 14 15.5885 7.5
      vertex 13.5 16.4545 7.5
    endloop
  endfacet
  facet normal 0 -0 1
    outer loop
      vertex 13.5 14.7224 7.5
      vertex 13.5 16.4545 7.5
      vertex 10.5 16.4545 7.5
    endloop
  endfacet
  facet normal 0 0 1
    outer loop
      vertex 13.5 14.7224 7.5
      vertex 10.5 16.4545 7.5
      vertex 9.49998 14.7224 7.5
    endloop
  endfacet
  facet normal 0 0 1
    outer loop
      vertex -9 17.3205 7.5
      vertex -10.5 16.4545 7.5
      vertex -8 15.5884 7.5
    endloop
  endfacet
  facet normal 0 0 1
    outer loop
      vertex 13 20.7846 7.5
      vertex 12.5 21.6506 7.5
      vertex 11.5 21.6506 7.5
    endloop
  endfacet
  facet normal 0 0 1
    outer loop
      vertex 7.5 19.9186 7.5
      vertex 6.5 19.9186 7.5
      vertex 6 19.0526 7.5
    endloop
  endfacet
  facet normal 0 0 1
    outer loop
      vertex 7.5 19.9186 7.5
      vertex 6 19.0526 7.5
      vertex 9 17.3205 7.5
    endloop
  endfacet
  facet normal 0 0 1
    outer loop
      vertex -13 20.7846 7.5
      vertex -11.5 21.6506 7.5
      vertex -12.5 21.6506 7.5
    endloop
  endfacet
  facet normal 0 0 1
    outer loop
      vertex 8 15.5884 7.5
      vertex 7.49997 11.2583 7.5
      vertex 9.49998 14.7224 7.5
    endloop
  endfacet
  facet normal -0 0 1
    outer loop
      vertex 6 12.1243 7.5
      vertex 7.49997 11.2583 7.5
      vertex 8 15.5884 7.5
    endloop
  endfacet
  facet normal 0 0 1
    outer loop
      vertex 10.5 16.4545 7.5
      vertex 8 15.5884 7.5
      vertex 9.49998 14.7224 7.5
    endloop
  endfacet
  facet normal 0 -0 1
    outer loop
      vertex 6.49998 9.52628 7.5
      vertex 7.49997 11.2583 7.5
      vertex 5 10.3923 7.5
    endloop
  endfacet
  facet normal 0 0 1
    outer loop
      vertex 5 10.3923 7.5
      vertex 7.49997 11.2583 7.5
      vertex 6 12.1243 7.5
    endloop
  endfacet
  facet normal 0 0 1
    outer loop
      vertex 1 17.3205 7.5
      vertex 2.5 18.1865 7.5
      vertex 1.5 18.1865 7.5
    endloop
  endfacet
  facet normal 0 0 1
    outer loop
      vertex 6 12.1243 7.5
      vertex 2.5 18.1865 7.5
      vertex 1 17.3205 7.5
    endloop
  endfacet
  facet normal 0 -0 1
    outer loop
      vertex 1.99998 1.73207 7.5
      vertex 5 10.3923 7.5
      vertex 0.500015 2.59807 7.5
    endloop
  endfacet
  facet normal 0 0 1
    outer loop
      vertex -1 17.3205 7.5
      vertex -1.5 18.1865 7.5
      vertex -2.5 18.1865 7.5
    endloop
  endfacet
  facet normal 0 0 1
    outer loop
      vertex 1.99998 1.73207 7.5
      vertex 6.49998 9.52628 7.5
      vertex 5 10.3923 7.5
    endloop
  endfacet
  facet normal -0 0 1
    outer loop
      vertex -2.5 0.866013 7.5
      vertex -0.500015 -2.59807 7.5
      vertex -0.500015 2.59807 7.5
    endloop
  endfacet
  facet normal 0 0 1
    outer loop
      vertex -2.5 0.866013 7.5
      vertex -0.500015 2.59807 7.5
      vertex -1.99998 1.73207 7.5
    endloop
  endfacet
  facet normal 0 0 1
    outer loop
      vertex -9.49998 14.7224 7.5
      vertex -10.5 16.4545 7.5
      vertex -13.5 14.7224 7.5
    endloop
  endfacet
  facet normal 0 0 1
    outer loop
      vertex -13 20.7846 7.5
      vertex -10.5 16.4545 7.5
      vertex -9 17.3205 7.5
    endloop
  endfacet
  facet normal 0 0 1
    outer loop
      vertex -1 17.3205 7.5
      vertex -2.5 18.1865 7.5
      vertex -6 12.1243 7.5
    endloop
  endfacet
  facet normal 0 0 1
    outer loop
      vertex -1 17.3205 7.5
      vertex -6 12.1243 7.5
      vertex -5 10.3923 7.5
    endloop
  endfacet
  facet normal -0 0 1
    outer loop
      vertex -13 20.7846 7.5
      vertex -9 17.3205 7.5
      vertex -11.5 21.6506 7.5
    endloop
  endfacet
  facet normal 0 0 1
    outer loop
      vertex -6 19.0526 7.5
      vertex -6.5 19.9186 7.5
      vertex -7.5 19.9186 7.5
    endloop
  endfacet
  facet normal 0 0 1
    outer loop
      vertex -6 19.0526 7.5
      vertex -7.5 19.9186 7.5
      vertex -9 17.3205 7.5
    endloop
  endfacet
  facet normal 0 0 1
    outer loop
      vertex -6 19.0526 7.5
      vertex -9 17.3205 7.5
      vertex -8 15.5884 7.5
    endloop
  endfacet
  facet normal 0 0 1
    outer loop
      vertex -17.5 -0.866013 7.5
      vertex -13.5 -0.866013 7.5
      vertex -17.5 0.866013 7.5
    endloop
  endfacet
  facet normal 0 0 1
    outer loop
      vertex -13.5 14.7224 7.5
      vertex -10.5 16.4545 7.5
      vertex -13.5 16.4545 7.5
    endloop
  endfacet
  facet normal 0 -0 1
    outer loop
      vertex -9.49998 14.7224 7.5
      vertex -8 15.5884 7.5
      vertex -10.5 16.4545 7.5
    endloop
  endfacet
  facet normal 0 0 1
    outer loop
      vertex -6 12.1243 7.5
      vertex -8 15.5884 7.5
      vertex -7.49997 11.2583 7.5
    endloop
  endfacet
  facet normal 0 0 1
    outer loop
      vertex -17.5 0.866013 7.5
      vertex -19.5 4.33012 7.5
      vertex -19.5 0.866013 7.5
    endloop
  endfacet
  facet normal 0 -0 1
    outer loop
      vertex -14.5 9.52628 7.5
      vertex -14.5 11.2583 7.5
      vertex -15 10.3923 7.5
    endloop
  endfacet
  facet normal 0 0 1
    outer loop
      vertex -7.49997 11.2583 7.5
      vertex -14.5 11.2583 7.5
      vertex -14.5 9.52628 7.5
    endloop
  endfacet
  facet normal 0 0 1
    outer loop
      vertex -7.49997 11.2583 7.5
      vertex -8 15.5884 7.5
      vertex -9.49998 14.7224 7.5
    endloop
  endfacet
  facet normal 0 0 1
    outer loop
      vertex -5 10.3923 7.5
      vertex -7.49997 11.2583 7.5
      vertex -6.49998 9.52628 7.5
    endloop
  endfacet
  facet normal 0 0 1
    outer loop
      vertex -5 10.3923 7.5
      vertex -6 12.1243 7.5
      vertex -7.49997 11.2583 7.5
    endloop
  endfacet
  facet normal 0 0 1
    outer loop
      vertex -0.500015 -2.59807 7.5
      vertex 0.500015 -2.59807 7.5
      vertex -0.500015 2.59807 7.5
    endloop
  endfacet
  facet normal 0 -0 1
    outer loop
      vertex -16.5 -7.79422 7.5
      vertex -15.5 -7.79422 7.5
      vertex -17 -6.92819 7.5
    endloop
  endfacet
  facet normal 0 -0 1
    outer loop
      vertex -19.5 -4.33012 7.5
      vertex -19.5 -0.866013 7.5
      vertex -21 -3.4641 7.5
    endloop
  endfacet
  facet normal 0 0 1
    outer loop
      vertex -15.5 7.79422 7.5
      vertex -16.5 7.79422 7.5
      vertex -17 6.92819 7.5
    endloop
  endfacet
  facet normal 0 0 1
    outer loop
      vertex -5 10.3923 7.5
      vertex -6.49998 9.52628 7.5
      vertex -1.99998 1.73207 7.5
    endloop
  endfacet
  facet normal 0 0 1
    outer loop
      vertex -7.49997 11.2583 7.5
      vertex -14.5 9.52628 7.5
      vertex -6.49998 9.52628 7.5
    endloop
  endfacet
  facet normal -0 0 1
    outer loop
      vertex -2.5 -0.866013 7.5
      vertex -0.500015 -2.59807 7.5
      vertex -2.5 0.866013 7.5
    endloop
  endfacet
  facet normal 0 0 1
    outer loop
      vertex -0.500015 2.59807 7.5
      vertex -5 10.3923 7.5
      vertex -1.99998 1.73207 7.5
    endloop
  endfacet
  facet normal -0 0 1
    outer loop
      vertex -13.5 0.866013 7.5
      vertex -11.5 -0.866013 7.5
      vertex -11.5 0.866013 7.5
    endloop
  endfacet
  facet normal 0 0 1
    outer loop
      vertex -17.5 -0.866013 7.5
      vertex -19.5 0.866013 7.5
      vertex -19.5 -0.866013 7.5
    endloop
  endfacet
  facet normal 0 0 1
    outer loop
      vertex -15.5 7.79422 7.5
      vertex -17 6.92819 7.5
      vertex -13.5 0.866013 7.5
    endloop
  endfacet
  facet normal 0 0 1
    outer loop
      vertex -15.5 7.79422 7.5
      vertex -13.5 0.866013 7.5
      vertex -11.5 0.866013 7.5
    endloop
  endfacet
  facet normal 0 0 1
    outer loop
      vertex -19.5 4.33012 7.5
      vertex -20.5 4.33012 7.5
      vertex -21 3.4641 7.5
    endloop
  endfacet
  facet normal 0 0 1
    outer loop
      vertex -19.5 4.33012 7.5
      vertex -21 3.4641 7.5
      vertex -19.5 0.866013 7.5
    endloop
  endfacet
  facet normal 0 0 1
    outer loop
      vertex -24.5 -0.866013 7.5
      vertex -19.5 -0.866013 7.5
      vertex -24.5 0.866013 7.5
    endloop
  endfacet
  facet normal 0 -0 1
    outer loop
      vertex -24.5 -0.866013 7.5
      vertex -24.5 0.866013 7.5
      vertex -25 0 7.5
    endloop
  endfacet
  facet normal 0 -0 1
    outer loop
      vertex -19.5 -0.866013 7.5
      vertex -19.5 0.866013 7.5
      vertex -24.5 0.866013 7.5
    endloop
  endfacet
  facet normal 0 0 1
    outer loop
      vertex -11.5 -0.866013 7.5
      vertex -2.5 -0.866013 7.5
      vertex -11.5 0.866013 7.5
    endloop
  endfacet
  facet normal 0 0 1
    outer loop
      vertex -17.5 -0.866013 7.5
      vertex -19.5 -0.866013 7.5
      vertex -19.5 -4.33012 7.5
    endloop
  endfacet
  facet normal 0 0 1
    outer loop
      vertex -0.500015 -2.59807 7.5
      vertex -1.99998 -1.73207 7.5
      vertex -5 -10.3923 7.5
    endloop
  endfacet
  facet normal 0 -0 1
    outer loop
      vertex -13.5 -0.866013 7.5
      vertex -13.5 0.866013 7.5
      vertex -17.5 0.866013 7.5
    endloop
  endfacet
  facet normal -0 0 1
    outer loop
      vertex -19.5 0.866013 7.5
      vertex -17.5 -0.866013 7.5
      vertex -17.5 0.866013 7.5
    endloop
  endfacet
  facet normal -0 0 1
    outer loop
      vertex -17 -6.92819 7.5
      vertex -15.5 -7.79422 7.5
      vertex -13.5 -0.866013 7.5
    endloop
  endfacet
  facet normal 0 0 1
    outer loop
      vertex -11.5 -0.866013 7.5
      vertex -13.5 0.866013 7.5
      vertex -13.5 -0.866013 7.5
    endloop
  endfacet
  facet normal 0 0 1
    outer loop
      vertex -6 -19.0526 7.5
      vertex -8 -15.5884 7.5
      vertex -9 -17.3205 7.5
    endloop
  endfacet
  facet normal 0 -0 1
    outer loop
      vertex -6.5 -19.9186 7.5
      vertex -6 -19.0526 7.5
      vertex -7.5 -19.9186 7.5
    endloop
  endfacet
  facet normal 0 0 1
    outer loop
      vertex -0.500015 -2.59807 7.5
      vertex -2.5 -0.866013 7.5
      vertex -1.99998 -1.73207 7.5
    endloop
  endfacet
  facet normal 0 -0 1
    outer loop
      vertex -2.5 -0.866013 7.5
      vertex -2.5 0.866013 7.5
      vertex -11.5 0.866013 7.5
    endloop
  endfacet
  facet normal 0 0 1
    outer loop
      vertex -15.5 -7.79422 7.5
      vertex -11.5 -0.866013 7.5
      vertex -13.5 -0.866013 7.5
    endloop
  endfacet
  facet normal -0 0 1
    outer loop
      vertex -0.500015 2.59807 7.5
      vertex 0.500015 -2.59807 7.5
      vertex 0.500015 2.59807 7.5
    endloop
  endfacet
  facet normal -0 0 1
    outer loop
      vertex -6.49998 -9.52628 7.5
      vertex -5 -10.3923 7.5
      vertex -1.99998 -1.73207 7.5
    endloop
  endfacet
  facet normal 0 -0 1
    outer loop
      vertex -14.5 -11.2583 7.5
      vertex -14.5 -9.52628 7.5
      vertex -15 -10.3923 7.5
    endloop
  endfacet
  facet normal 0 0 1
    outer loop
      vertex -7.49997 -11.2583 7.5
      vertex -14.5 -9.52628 7.5
      vertex -14.5 -11.2583 7.5
    endloop
  endfacet
  facet normal 0 0 1
    outer loop
      vertex -10.5 -16.4545 7.5
      vertex -13 -20.7846 7.5
      vertex -9 -17.3205 7.5
    endloop
  endfacet
  facet normal 0 0 1
    outer loop
      vertex -6.49998 -9.52628 7.5
      vertex -14.5 -9.52628 7.5
      vertex -7.49997 -11.2583 7.5
    endloop
  endfacet
  facet normal 0 0 1
    outer loop
      vertex -6 -19.0526 7.5
      vertex -9 -17.3205 7.5
      vertex -7.5 -19.9186 7.5
    endloop
  endfacet
  facet normal 0 -0 1
    outer loop
      vertex -13.5 -16.4545 7.5
      vertex -13.5 -14.7224 7.5
      vertex -14 -15.5885 7.5
    endloop
  endfacet
  facet normal 0 0 1
    outer loop
      vertex -10.5 -16.4545 7.5
      vertex -13.5 -14.7224 7.5
      vertex -13.5 -16.4545 7.5
    endloop
  endfacet
  facet normal 0 -0 1
    outer loop
      vertex -11.5 -21.6506 7.5
      vertex -9 -17.3205 7.5
      vertex -13 -20.7846 7.5
    endloop
  endfacet
  facet normal 0 0 1
    outer loop
      vertex -9.49998 -14.7224 7.5
      vertex -13.5 -14.7224 7.5
      vertex -10.5 -16.4545 7.5
    endloop
  endfacet
  facet normal 0 0 1
    outer loop
      vertex -11.5 -21.6506 7.5
      vertex -13 -20.7846 7.5
      vertex -12.5 -21.6506 7.5
    endloop
  endfacet
  facet normal 0 0 1
    outer loop
      vertex -1 -17.3205 7.5
      vertex -6 -12.1243 7.5
      vertex -2.5 -18.1865 7.5
    endloop
  endfacet
  facet normal -0 0 1
    outer loop
      vertex -10.5 -16.4545 7.5
      vertex -9 -17.3205 7.5
      vertex -8 -15.5884 7.5
    endloop
  endfacet
  facet normal 0 0 1
    outer loop
      vertex 8 -15.5884 7.5
      vertex 7.49997 -11.2583 7.5
      vertex 6 -12.1243 7.5
    endloop
  endfacet
  facet normal 0 0 1
    outer loop
      vertex 11.5 -21.6506 7.5
      vertex 12.5 -21.6506 7.5
      vertex 13 -20.7846 7.5
    endloop
  endfacet
  facet normal 0 -0 1
    outer loop
      vertex -1.5 -18.1865 7.5
      vertex -1 -17.3205 7.5
      vertex -2.5 -18.1865 7.5
    endloop
  endfacet
  facet normal 0 0 1
    outer loop
      vertex -8 -15.5884 7.5
      vertex -9.49998 -14.7224 7.5
      vertex -10.5 -16.4545 7.5
    endloop
  endfacet
  facet normal 0 0 1
    outer loop
      vertex -7.49997 -11.2583 7.5
      vertex -9.49998 -14.7224 7.5
      vertex -8 -15.5884 7.5
    endloop
  endfacet
  facet normal 0 0 1
    outer loop
      vertex -5 -10.3923 7.5
      vertex -6 -12.1243 7.5
      vertex -1 -17.3205 7.5
    endloop
  endfacet
  facet normal 0 0 1
    outer loop
      vertex -5 -10.3923 7.5
      vertex -7.49997 -11.2583 7.5
      vertex -6 -12.1243 7.5
    endloop
  endfacet
  facet normal -0 0 1
    outer loop
      vertex 1 -17.3205 7.5
      vertex 2.5 -18.1865 7.5
      vertex 6 -12.1243 7.5
    endloop
  endfacet
  facet normal -0 0 1
    outer loop
      vertex 5 -10.3923 7.5
      vertex 7.49997 -11.2583 7.5
      vertex 6.49998 -9.52628 7.5
    endloop
  endfacet
  facet normal 0 -0 1
    outer loop
      vertex 6 -12.1243 7.5
      vertex 7.49997 -11.2583 7.5
      vertex 5 -10.3923 7.5
    endloop
  endfacet
  facet normal 0 0 1
    outer loop
      vertex -6.49998 -9.52628 7.5
      vertex -7.49997 -11.2583 7.5
      vertex -5 -10.3923 7.5
    endloop
  endfacet
  facet normal 0 0 1
    outer loop
      vertex 0.500015 -2.59807 7.5
      vertex 2.5 -0.866013 7.5
      vertex 0.500015 2.59807 7.5
    endloop
  endfacet
  facet normal 0 0 1
    outer loop
      vertex 1.99998 -1.73207 7.5
      vertex 0.500015 -2.59807 7.5
      vertex 5 -10.3923 7.5
    endloop
  endfacet
  facet normal 0 -0 1
    outer loop
      vertex 1.99998 -1.73207 7.5
      vertex 2.5 -0.866013 7.5
      vertex 0.500015 -2.59807 7.5
    endloop
  endfacet
  facet normal 0 0 1
    outer loop
      vertex 6.49998 -9.52628 7.5
      vertex 1.99998 -1.73207 7.5
      vertex 5 -10.3923 7.5
    endloop
  endfacet
  facet normal 0 -0 1
    outer loop
      vertex 1.5 -18.1865 7.5
      vertex 2.5 -18.1865 7.5
      vertex 1 -17.3205 7.5
    endloop
  endfacet
  facet normal -0 0 1
    outer loop
      vertex 8 -15.5884 7.5
      vertex 10.5 -16.4545 7.5
      vertex 9.49998 -14.7224 7.5
    endloop
  endfacet
  facet normal -0 0 1
    outer loop
      vertex 6 -19.0526 7.5
      vertex 7.5 -19.9186 7.5
      vertex 9 -17.3205 7.5
    endloop
  endfacet
  facet normal 0 0 1
    outer loop
      vertex 1 -17.3205 7.5
      vertex 6 -12.1243 7.5
      vertex 5 -10.3923 7.5
    endloop
  endfacet
  facet normal 0 0 1
    outer loop
      vertex 7.49997 -11.2583 7.5
      vertex 8 -15.5884 7.5
      vertex 9.49998 -14.7224 7.5
    endloop
  endfacet
  facet normal 0 0 1
    outer loop
      vertex 6 -19.0526 7.5
      vertex 6.5 -19.9186 7.5
      vertex 7.5 -19.9186 7.5
    endloop
  endfacet
  facet normal 0 0 1
    outer loop
      vertex 13 -20.7846 7.5
      vertex 9 -17.3205 7.5
      vertex 11.5 -21.6506 7.5
    endloop
  endfacet
  facet normal 0 0 1
    outer loop
      vertex 9 -17.3205 7.5
      vertex 8 -15.5884 7.5
      vertex 6 -19.0526 7.5
    endloop
  endfacet
  facet normal 0 0 1
    outer loop
      vertex 10.5 -16.4545 7.5
      vertex 8 -15.5884 7.5
      vertex 9 -17.3205 7.5
    endloop
  endfacet
  facet normal 0.866024 0.500002 0
    outer loop
      vertex 10.5 -16.4545 0
      vertex 13 -20.7846 7.5
      vertex 13 -20.7846 0
    endloop
  endfacet
  facet normal 0.866024 0.500002 -0
    outer loop
      vertex 10.5 -16.4545 0
      vertex 10.5 -16.4545 7.5
      vertex 13 -20.7846 7.5
    endloop
  endfacet
  facet normal 0 -1 0
    outer loop
      vertex 13.5 -16.4545 0
      vertex 10.5 -16.4545 7.5
      vertex 10.5 -16.4545 0
    endloop
  endfacet
  facet normal 0 -1 0
    outer loop
      vertex 13.5 -16.4545 0
      vertex 13.5 -16.4545 7.5
      vertex 10.5 -16.4545 7.5
    endloop
  endfacet
  facet normal 0.866019 -0.500011 0
    outer loop
      vertex 14 -15.5885 0
      vertex 13.5 -16.4545 7.5
      vertex 13.5 -16.4545 0
    endloop
  endfacet
  facet normal 0.866019 -0.500011 0
    outer loop
      vertex 14 -15.5885 0
      vertex 14 -15.5885 7.5
      vertex 13.5 -16.4545 7.5
    endloop
  endfacet
  facet normal 0.866044 0.499968 0
    outer loop
      vertex 13.5 -14.7224 0
      vertex 14 -15.5885 7.5
      vertex 14 -15.5885 0
    endloop
  endfacet
  facet normal 0.866044 0.499968 -0
    outer loop
      vertex 13.5 -14.7224 0
      vertex 13.5 -14.7224 7.5
      vertex 14 -15.5885 7.5
    endloop
  endfacet
  facet normal 0 1 0
    outer loop
      vertex 9.49998 -14.7224 0
      vertex 13.5 -14.7224 7.5
      vertex 13.5 -14.7224 0
    endloop
  endfacet
  facet normal 0 1 0
    outer loop
      vertex 9.49998 -14.7224 0
      vertex 9.49998 -14.7224 7.5
      vertex 13.5 -14.7224 7.5
    endloop
  endfacet
  facet normal 0.866024 0.500002 0
    outer loop
      vertex 7.49997 -11.2583 0
      vertex 9.49998 -14.7224 7.5
      vertex 9.49998 -14.7224 0
    endloop
  endfacet
  facet normal 0.866024 0.500002 -0
    outer loop
      vertex 7.49997 -11.2583 0
      vertex 7.49997 -11.2583 7.5
      vertex 9.49998 -14.7224 7.5
    endloop
  endfacet
  facet normal 0 -1 0
    outer loop
      vertex 14.5 -11.2583 0
      vertex 7.49997 -11.2583 7.5
      vertex 7.49997 -11.2583 0
    endloop
  endfacet
  facet normal 0 -1 0
    outer loop
      vertex 14.5 -11.2583 0
      vertex 14.5 -11.2583 7.5
      vertex 7.49997 -11.2583 7.5
    endloop
  endfacet
  facet normal 0.866019 -0.500011 0
    outer loop
      vertex 15 -10.3923 0
      vertex 14.5 -11.2583 7.5
      vertex 14.5 -11.2583 0
    endloop
  endfacet
  facet normal 0.866019 -0.500011 0
    outer loop
      vertex 15 -10.3923 0
      vertex 15 -10.3923 7.5
      vertex 14.5 -11.2583 7.5
    endloop
  endfacet
  facet normal 0.866024 0.500002 0
    outer loop
      vertex 14.5 -9.52628 0
      vertex 15 -10.3923 7.5
      vertex 15 -10.3923 0
    endloop
  endfacet
  facet normal 0.866024 0.500002 -0
    outer loop
      vertex 14.5 -9.52628 0
      vertex 14.5 -9.52628 7.5
      vertex 15 -10.3923 7.5
    endloop
  endfacet
  facet normal 0 1 0
    outer loop
      vertex 6.49998 -9.52628 0
      vertex 14.5 -9.52628 7.5
      vertex 14.5 -9.52628 0
    endloop
  endfacet
  facet normal 0 1 0
    outer loop
      vertex 6.49998 -9.52628 0
      vertex 6.49998 -9.52628 7.5
      vertex 14.5 -9.52628 7.5
    endloop
  endfacet
  facet normal 0.866025 0.500001 0
    outer loop
      vertex 1.99998 -1.73207 0
      vertex 6.49998 -9.52628 7.5
      vertex 6.49998 -9.52628 0
    endloop
  endfacet
  facet normal 0.866025 0.500001 -0
    outer loop
      vertex 1.99998 -1.73207 0
      vertex 1.99998 -1.73207 7.5
      vertex 6.49998 -9.52628 7.5
    endloop
  endfacet
  facet normal 0.866025 -0.500001 0
    outer loop
      vertex 2.5 -0.866013 0
      vertex 1.99998 -1.73207 7.5
      vertex 1.99998 -1.73207 0
    endloop
  endfacet
  facet normal 0.866025 -0.500001 0
    outer loop
      vertex 2.5 -0.866013 0
      vertex 2.5 -0.866013 7.5
      vertex 1.99998 -1.73207 7.5
    endloop
  endfacet
  facet normal 0 -1 0
    outer loop
      vertex 11.5 -0.866013 0
      vertex 2.5 -0.866013 7.5
      vertex 2.5 -0.866013 0
    endloop
  endfacet
  facet normal 0 -1 0
    outer loop
      vertex 11.5 -0.866013 0
      vertex 11.5 -0.866013 7.5
      vertex 2.5 -0.866013 7.5
    endloop
  endfacet
  facet normal -0.866026 -0.5 0
    outer loop
      vertex 15.5 -7.79422 0
      vertex 11.5 -0.866013 7.5
      vertex 11.5 -0.866013 0
    endloop
  endfacet
  facet normal -0.866026 -0.5 0
    outer loop
      vertex 15.5 -7.79422 0
      vertex 15.5 -7.79422 7.5
      vertex 11.5 -0.866013 7.5
    endloop
  endfacet
  facet normal 0 -1 0
    outer loop
      vertex 16.5 -7.79422 0
      vertex 15.5 -7.79422 7.5
      vertex 15.5 -7.79422 0
    endloop
  endfacet
  facet normal 0 -1 0
    outer loop
      vertex 16.5 -7.79422 0
      vertex 16.5 -7.79422 7.5
      vertex 15.5 -7.79422 7.5
    endloop
  endfacet
  facet normal 0.866027 -0.499998 0
    outer loop
      vertex 17 -6.92819 0
      vertex 16.5 -7.79422 7.5
      vertex 16.5 -7.79422 0
    endloop
  endfacet
  facet normal 0.866027 -0.499998 0
    outer loop
      vertex 17 -6.92819 0
      vertex 17 -6.92819 7.5
      vertex 16.5 -7.79422 7.5
    endloop
  endfacet
  facet normal 0.866025 0.5 0
    outer loop
      vertex 13.5 -0.866013 0
      vertex 17 -6.92819 7.5
      vertex 17 -6.92819 0
    endloop
  endfacet
  facet normal 0.866025 0.5 -0
    outer loop
      vertex 13.5 -0.866013 0
      vertex 13.5 -0.866013 7.5
      vertex 17 -6.92819 7.5
    endloop
  endfacet
  facet normal 0 -1 0
    outer loop
      vertex 17.5 -0.866013 0
      vertex 13.5 -0.866013 7.5
      vertex 13.5 -0.866013 0
    endloop
  endfacet
  facet normal 0 -1 0
    outer loop
      vertex 17.5 -0.866013 0
      vertex 17.5 -0.866013 7.5
      vertex 13.5 -0.866013 7.5
    endloop
  endfacet
  facet normal -0.866026 -0.499999 0
    outer loop
      vertex 19.5 -4.33012 0
      vertex 17.5 -0.866013 7.5
      vertex 17.5 -0.866013 0
    endloop
  endfacet
  facet normal -0.866026 -0.499999 0
    outer loop
      vertex 19.5 -4.33012 0
      vertex 19.5 -4.33012 7.5
      vertex 17.5 -0.866013 7.5
    endloop
  endfacet
  facet normal 0 -1 0
    outer loop
      vertex 20.5 -4.33012 0
      vertex 19.5 -4.33012 7.5
      vertex 19.5 -4.33012 0
    endloop
  endfacet
  facet normal 0 -1 0
    outer loop
      vertex 20.5 -4.33012 0
      vertex 20.5 -4.33012 7.5
      vertex 19.5 -4.33012 7.5
    endloop
  endfacet
  facet normal 0.866024 -0.500002 0
    outer loop
      vertex 21 -3.4641 0
      vertex 20.5 -4.33012 7.5
      vertex 20.5 -4.33012 0
    endloop
  endfacet
  facet normal 0.866024 -0.500002 0
    outer loop
      vertex 21 -3.4641 0
      vertex 21 -3.4641 7.5
      vertex 20.5 -4.33012 7.5
    endloop
  endfacet
  facet normal 0.866026 0.499998 0
    outer loop
      vertex 19.5 -0.866013 0
      vertex 21 -3.4641 7.5
      vertex 21 -3.4641 0
    endloop
  endfacet
  facet normal 0.866026 0.499998 -0
    outer loop
      vertex 19.5 -0.866013 0
      vertex 19.5 -0.866013 7.5
      vertex 21 -3.4641 7.5
    endloop
  endfacet
  facet normal 0 -1 0
    outer loop
      vertex 24.5 -0.866013 0
      vertex 19.5 -0.866013 7.5
      vertex 19.5 -0.866013 0
    endloop
  endfacet
  facet normal 0 -1 0
    outer loop
      vertex 24.5 -0.866013 0
      vertex 24.5 -0.866013 7.5
      vertex 19.5 -0.866013 7.5
    endloop
  endfacet
  facet normal 0.866022 -0.500005 0
    outer loop
      vertex 25 0 0
      vertex 24.5 -0.866013 7.5
      vertex 24.5 -0.866013 0
    endloop
  endfacet
  facet normal 0.866022 -0.500005 0
    outer loop
      vertex 25 0 0
      vertex 25 0 7.5
      vertex 24.5 -0.866013 7.5
    endloop
  endfacet
  facet normal 0.866022 0.500005 0
    outer loop
      vertex 24.5 0.866013 0
      vertex 25 0 7.5
      vertex 25 0 0
    endloop
  endfacet
  facet normal 0.866022 0.500005 -0
    outer loop
      vertex 24.5 0.866013 0
      vertex 24.5 0.866013 7.5
      vertex 25 0 7.5
    endloop
  endfacet
  facet normal 0 1 0
    outer loop
      vertex 19.5 0.866013 0
      vertex 24.5 0.866013 7.5
      vertex 24.5 0.866013 0
    endloop
  endfacet
  facet normal 0 1 0
    outer loop
      vertex 19.5 0.866013 0
      vertex 19.5 0.866013 7.5
      vertex 24.5 0.866013 7.5
    endloop
  endfacet
  facet normal 0.866026 -0.499998 0
    outer loop
      vertex 21 3.4641 0
      vertex 19.5 0.866013 7.5
      vertex 19.5 0.866013 0
    endloop
  endfacet
  facet normal 0.866026 -0.499998 0
    outer loop
      vertex 21 3.4641 0
      vertex 21 3.4641 7.5
      vertex 19.5 0.866013 7.5
    endloop
  endfacet
  facet normal 0.866024 0.500002 0
    outer loop
      vertex 20.5 4.33012 0
      vertex 21 3.4641 7.5
      vertex 21 3.4641 0
    endloop
  endfacet
  facet normal 0.866024 0.500002 -0
    outer loop
      vertex 20.5 4.33012 0
      vertex 20.5 4.33012 7.5
      vertex 21 3.4641 7.5
    endloop
  endfacet
  facet normal 0 1 0
    outer loop
      vertex 19.5 4.33012 0
      vertex 20.5 4.33012 7.5
      vertex 20.5 4.33012 0
    endloop
  endfacet
  facet normal 0 1 0
    outer loop
      vertex 19.5 4.33012 0
      vertex 19.5 4.33012 7.5
      vertex 20.5 4.33012 7.5
    endloop
  endfacet
  facet normal -0.866026 0.499999 0
    outer loop
      vertex 17.5 0.866013 0
      vertex 19.5 4.33012 7.5
      vertex 19.5 4.33012 0
    endloop
  endfacet
  facet normal -0.866026 0.499999 0
    outer loop
      vertex 17.5 0.866013 0
      vertex 17.5 0.866013 7.5
      vertex 19.5 4.33012 7.5
    endloop
  endfacet
  facet normal 0 1 0
    outer loop
      vertex 13.5 0.866013 0
      vertex 17.5 0.866013 7.5
      vertex 17.5 0.866013 0
    endloop
  endfacet
  facet normal 0 1 0
    outer loop
      vertex 13.5 0.866013 0
      vertex 13.5 0.866013 7.5
      vertex 17.5 0.866013 7.5
    endloop
  endfacet
  facet normal 0.866025 -0.5 0
    outer loop
      vertex 17 6.92819 0
      vertex 13.5 0.866013 7.5
      vertex 13.5 0.866013 0
    endloop
  endfacet
  facet normal 0.866025 -0.5 0
    outer loop
      vertex 17 6.92819 0
      vertex 17 6.92819 7.5
      vertex 13.5 0.866013 7.5
    endloop
  endfacet
  facet normal 0.866027 0.499998 0
    outer loop
      vertex 16.5 7.79422 0
      vertex 17 6.92819 7.5
      vertex 17 6.92819 0
    endloop
  endfacet
  facet normal 0.866027 0.499998 -0
    outer loop
      vertex 16.5 7.79422 0
      vertex 16.5 7.79422 7.5
      vertex 17 6.92819 7.5
    endloop
  endfacet
  facet normal 0 1 0
    outer loop
      vertex 15.5 7.79422 0
      vertex 16.5 7.79422 7.5
      vertex 16.5 7.79422 0
    endloop
  endfacet
  facet normal 0 1 0
    outer loop
      vertex 15.5 7.79422 0
      vertex 15.5 7.79422 7.5
      vertex 16.5 7.79422 7.5
    endloop
  endfacet
  facet normal -0.866026 0.5 0
    outer loop
      vertex 11.5 0.866013 0
      vertex 15.5 7.79422 7.5
      vertex 15.5 7.79422 0
    endloop
  endfacet
  facet normal -0.866026 0.5 0
    outer loop
      vertex 11.5 0.866013 0
      vertex 11.5 0.866013 7.5
      vertex 15.5 7.79422 7.5
    endloop
  endfacet
  facet normal 0 1 0
    outer loop
      vertex 2.5 0.866013 0
      vertex 11.5 0.866013 7.5
      vertex 11.5 0.866013 0
    endloop
  endfacet
  facet normal 0 1 0
    outer loop
      vertex 2.5 0.866013 0
      vertex 2.5 0.866013 7.5
      vertex 11.5 0.866013 7.5
    endloop
  endfacet
  facet normal 0.866025 0.500001 0
    outer loop
      vertex 1.99998 1.73207 0
      vertex 2.5 0.866013 7.5
      vertex 2.5 0.866013 0
    endloop
  endfacet
  facet normal 0.866025 0.500001 -0
    outer loop
      vertex 1.99998 1.73207 0
      vertex 1.99998 1.73207 7.5
      vertex 2.5 0.866013 7.5
    endloop
  endfacet
  facet normal 0.866025 -0.500001 0
    outer loop
      vertex 6.49998 9.52628 0
      vertex 1.99998 1.73207 7.5
      vertex 1.99998 1.73207 0
    endloop
  endfacet
  facet normal 0.866025 -0.500001 0
    outer loop
      vertex 6.49998 9.52628 0
      vertex 6.49998 9.52628 7.5
      vertex 1.99998 1.73207 7.5
    endloop
  endfacet
  facet normal 0 -1 0
    outer loop
      vertex 14.5 9.52628 0
      vertex 6.49998 9.52628 7.5
      vertex 6.49998 9.52628 0
    endloop
  endfacet
  facet normal 0 -1 0
    outer loop
      vertex 14.5 9.52628 0
      vertex 14.5 9.52628 7.5
      vertex 6.49998 9.52628 7.5
    endloop
  endfacet
  facet normal 0.866024 -0.500002 0
    outer loop
      vertex 15 10.3923 0
      vertex 14.5 9.52628 7.5
      vertex 14.5 9.52628 0
    endloop
  endfacet
  facet normal 0.866024 -0.500002 0
    outer loop
      vertex 15 10.3923 0
      vertex 15 10.3923 7.5
      vertex 14.5 9.52628 7.5
    endloop
  endfacet
  facet normal 0.866019 0.500011 0
    outer loop
      vertex 14.5 11.2583 0
      vertex 15 10.3923 7.5
      vertex 15 10.3923 0
    endloop
  endfacet
  facet normal 0.866019 0.500011 -0
    outer loop
      vertex 14.5 11.2583 0
      vertex 14.5 11.2583 7.5
      vertex 15 10.3923 7.5
    endloop
  endfacet
  facet normal 0 1 0
    outer loop
      vertex 7.49997 11.2583 0
      vertex 14.5 11.2583 7.5
      vertex 14.5 11.2583 0
    endloop
  endfacet
  facet normal 0 1 0
    outer loop
      vertex 7.49997 11.2583 0
      vertex 7.49997 11.2583 7.5
      vertex 14.5 11.2583 7.5
    endloop
  endfacet
  facet normal 0.866024 -0.500002 0
    outer loop
      vertex 9.49998 14.7224 0
      vertex 7.49997 11.2583 7.5
      vertex 7.49997 11.2583 0
    endloop
  endfacet
  facet normal 0.866024 -0.500002 0
    outer loop
      vertex 9.49998 14.7224 0
      vertex 9.49998 14.7224 7.5
      vertex 7.49997 11.2583 7.5
    endloop
  endfacet
  facet normal 0 -1 0
    outer loop
      vertex 13.5 14.7224 0
      vertex 9.49998 14.7224 7.5
      vertex 9.49998 14.7224 0
    endloop
  endfacet
  facet normal 0 -1 0
    outer loop
      vertex 13.5 14.7224 0
      vertex 13.5 14.7224 7.5
      vertex 9.49998 14.7224 7.5
    endloop
  endfacet
  facet normal 0.866044 -0.499968 0
    outer loop
      vertex 14 15.5885 0
      vertex 13.5 14.7224 7.5
      vertex 13.5 14.7224 0
    endloop
  endfacet
  facet normal 0.866044 -0.499968 0
    outer loop
      vertex 14 15.5885 0
      vertex 14 15.5885 7.5
      vertex 13.5 14.7224 7.5
    endloop
  endfacet
  facet normal 0.866019 0.500011 0
    outer loop
      vertex 13.5 16.4545 0
      vertex 14 15.5885 7.5
      vertex 14 15.5885 0
    endloop
  endfacet
  facet normal 0.866019 0.500011 -0
    outer loop
      vertex 13.5 16.4545 0
      vertex 13.5 16.4545 7.5
      vertex 14 15.5885 7.5
    endloop
  endfacet
  facet normal 0 1 0
    outer loop
      vertex 10.5 16.4545 0
      vertex 13.5 16.4545 7.5
      vertex 13.5 16.4545 0
    endloop
  endfacet
  facet normal 0 1 0
    outer loop
      vertex 10.5 16.4545 0
      vertex 10.5 16.4545 7.5
      vertex 13.5 16.4545 7.5
    endloop
  endfacet
  facet normal 0.866024 -0.500002 0
    outer loop
      vertex 13 20.7846 0
      vertex 10.5 16.4545 7.5
      vertex 10.5 16.4545 0
    endloop
  endfacet
  facet normal 0.866024 -0.500002 0
    outer loop
      vertex 13 20.7846 0
      vertex 13 20.7846 7.5
      vertex 10.5 16.4545 7.5
    endloop
  endfacet
  facet normal 0.866019 0.500011 0
    outer loop
      vertex 12.5 21.6506 0
      vertex 13 20.7846 7.5
      vertex 13 20.7846 0
    endloop
  endfacet
  facet normal 0.866019 0.500011 -0
    outer loop
      vertex 12.5 21.6506 0
      vertex 12.5 21.6506 7.5
      vertex 13 20.7846 7.5
    endloop
  endfacet
  facet normal 0 1 0
    outer loop
      vertex 11.5 21.6506 0
      vertex 12.5 21.6506 7.5
      vertex 12.5 21.6506 0
    endloop
  endfacet
  facet normal 0 1 0
    outer loop
      vertex 11.5 21.6506 0
      vertex 11.5 21.6506 7.5
      vertex 12.5 21.6506 7.5
    endloop
  endfacet
  facet normal -0.866024 0.500002 0
    outer loop
      vertex 9 17.3205 0
      vertex 11.5 21.6506 7.5
      vertex 11.5 21.6506 0
    endloop
  endfacet
  facet normal -0.866024 0.500002 0
    outer loop
      vertex 9 17.3205 0
      vertex 9 17.3205 7.5
      vertex 11.5 21.6506 7.5
    endloop
  endfacet
  facet normal 0.866027 0.499997 0
    outer loop
      vertex 7.5 19.9186 0
      vertex 9 17.3205 7.5
      vertex 9 17.3205 0
    endloop
  endfacet
  facet normal 0.866027 0.499997 -0
    outer loop
      vertex 7.5 19.9186 0
      vertex 7.5 19.9186 7.5
      vertex 9 17.3205 7.5
    endloop
  endfacet
  facet normal 0 1 0
    outer loop
      vertex 6.5 19.9186 0
      vertex 7.5 19.9186 7.5
      vertex 7.5 19.9186 0
    endloop
  endfacet
  facet normal 0 1 0
    outer loop
      vertex 6.5 19.9186 0
      vertex 6.5 19.9186 7.5
      vertex 7.5 19.9186 7.5
    endloop
  endfacet
  facet normal -0.866019 0.500011 0
    outer loop
      vertex 6 19.0526 0
      vertex 6.5 19.9186 7.5
      vertex 6.5 19.9186 0
    endloop
  endfacet
  facet normal -0.866019 0.500011 0
    outer loop
      vertex 6 19.0526 0
      vertex 6 19.0526 7.5
      vertex 6.5 19.9186 7.5
    endloop
  endfacet
  facet normal -0.866032 -0.499989 0
    outer loop
      vertex 8 15.5884 0
      vertex 6 19.0526 7.5
      vertex 6 19.0526 0
    endloop
  endfacet
  facet normal -0.866032 -0.499989 0
    outer loop
      vertex 8 15.5884 0
      vertex 8 15.5884 7.5
      vertex 6 19.0526 7.5
    endloop
  endfacet
  facet normal -0.866025 0.5 0
    outer loop
      vertex 6 12.1243 0
      vertex 8 15.5884 7.5
      vertex 8 15.5884 0
    endloop
  endfacet
  facet normal -0.866025 0.5 0
    outer loop
      vertex 6 12.1243 0
      vertex 6 12.1243 7.5
      vertex 8 15.5884 7.5
    endloop
  endfacet
  facet normal 0.866026 0.499999 0
    outer loop
      vertex 2.5 18.1865 0
      vertex 6 12.1243 7.5
      vertex 6 12.1243 0
    endloop
  endfacet
  facet normal 0.866026 0.499999 -0
    outer loop
      vertex 2.5 18.1865 0
      vertex 2.5 18.1865 7.5
      vertex 6 12.1243 7.5
    endloop
  endfacet
  facet normal 0 1 0
    outer loop
      vertex 1.5 18.1865 0
      vertex 2.5 18.1865 7.5
      vertex 2.5 18.1865 0
    endloop
  endfacet
  facet normal 0 1 0
    outer loop
      vertex 1.5 18.1865 0
      vertex 1.5 18.1865 7.5
      vertex 2.5 18.1865 7.5
    endloop
  endfacet
  facet normal -0.866019 0.500011 0
    outer loop
      vertex 1 17.3205 0
      vertex 1.5 18.1865 7.5
      vertex 1.5 18.1865 0
    endloop
  endfacet
  facet normal -0.866019 0.500011 0
    outer loop
      vertex 1 17.3205 0
      vertex 1 17.3205 7.5
      vertex 1.5 18.1865 7.5
    endloop
  endfacet
  facet normal -0.866025 -0.5 0
    outer loop
      vertex 5 10.3923 0
      vertex 1 17.3205 7.5
      vertex 1 17.3205 0
    endloop
  endfacet
  facet normal -0.866025 -0.5 0
    outer loop
      vertex 5 10.3923 0
      vertex 5 10.3923 7.5
      vertex 1 17.3205 7.5
    endloop
  endfacet
  facet normal -0.866026 0.499999 0
    outer loop
      vertex 0.500015 2.59807 0
      vertex 5 10.3923 7.5
      vertex 5 10.3923 0
    endloop
  endfacet
  facet normal -0.866026 0.499999 0
    outer loop
      vertex 0.500015 2.59807 0
      vertex 0.500015 2.59807 7.5
      vertex 5 10.3923 7.5
    endloop
  endfacet
  facet normal 0 1 0
    outer loop
      vertex -0.500015 2.59807 0
      vertex 0.500015 2.59807 7.5
      vertex 0.500015 2.59807 0
    endloop
  endfacet
  facet normal 0 1 0
    outer loop
      vertex -0.500015 2.59807 0
      vertex -0.500015 2.59807 7.5
      vertex 0.500015 2.59807 7.5
    endloop
  endfacet
  facet normal 0.866026 0.499999 0
    outer loop
      vertex -5 10.3923 0
      vertex -0.500015 2.59807 7.5
      vertex -0.500015 2.59807 0
    endloop
  endfacet
  facet normal 0.866026 0.499999 -0
    outer loop
      vertex -5 10.3923 0
      vertex -5 10.3923 7.5
      vertex -0.500015 2.59807 7.5
    endloop
  endfacet
  facet normal 0.866025 -0.5 0
    outer loop
      vertex -1 17.3205 0
      vertex -5 10.3923 7.5
      vertex -5 10.3923 0
    endloop
  endfacet
  facet normal 0.866025 -0.5 0
    outer loop
      vertex -1 17.3205 0
      vertex -1 17.3205 7.5
      vertex -5 10.3923 7.5
    endloop
  endfacet
  facet normal 0.866019 0.500011 0
    outer loop
      vertex -1.5 18.1865 0
      vertex -1 17.3205 7.5
      vertex -1 17.3205 0
    endloop
  endfacet
  facet normal 0.866019 0.500011 -0
    outer loop
      vertex -1.5 18.1865 0
      vertex -1.5 18.1865 7.5
      vertex -1 17.3205 7.5
    endloop
  endfacet
  facet normal 0 1 0
    outer loop
      vertex -2.5 18.1865 0
      vertex -1.5 18.1865 7.5
      vertex -1.5 18.1865 0
    endloop
  endfacet
  facet normal 0 1 0
    outer loop
      vertex -2.5 18.1865 0
      vertex -2.5 18.1865 7.5
      vertex -1.5 18.1865 7.5
    endloop
  endfacet
  facet normal -0.866026 0.499999 0
    outer loop
      vertex -6 12.1243 0
      vertex -2.5 18.1865 7.5
      vertex -2.5 18.1865 0
    endloop
  endfacet
  facet normal -0.866026 0.499999 0
    outer loop
      vertex -6 12.1243 0
      vertex -6 12.1243 7.5
      vertex -2.5 18.1865 7.5
    endloop
  endfacet
  facet normal 0.866025 0.5 0
    outer loop
      vertex -8 15.5884 0
      vertex -6 12.1243 7.5
      vertex -6 12.1243 0
    endloop
  endfacet
  facet normal 0.866025 0.5 -0
    outer loop
      vertex -8 15.5884 0
      vertex -8 15.5884 7.5
      vertex -6 12.1243 7.5
    endloop
  endfacet
  facet normal 0.866032 -0.499989 0
    outer loop
      vertex -6 19.0526 0
      vertex -8 15.5884 7.5
      vertex -8 15.5884 0
    endloop
  endfacet
  facet normal 0.866032 -0.499989 0
    outer loop
      vertex -6 19.0526 0
      vertex -6 19.0526 7.5
      vertex -8 15.5884 7.5
    endloop
  endfacet
  facet normal 0.866019 0.500011 0
    outer loop
      vertex -6.5 19.9186 0
      vertex -6 19.0526 7.5
      vertex -6 19.0526 0
    endloop
  endfacet
  facet normal 0.866019 0.500011 -0
    outer loop
      vertex -6.5 19.9186 0
      vertex -6.5 19.9186 7.5
      vertex -6 19.0526 7.5
    endloop
  endfacet
  facet normal 0 1 0
    outer loop
      vertex -7.5 19.9186 0
      vertex -6.5 19.9186 7.5
      vertex -6.5 19.9186 0
    endloop
  endfacet
  facet normal 0 1 0
    outer loop
      vertex -7.5 19.9186 0
      vertex -7.5 19.9186 7.5
      vertex -6.5 19.9186 7.5
    endloop
  endfacet
  facet normal -0.866027 0.499997 0
    outer loop
      vertex -9 17.3205 0
      vertex -7.5 19.9186 7.5
      vertex -7.5 19.9186 0
    endloop
  endfacet
  facet normal -0.866027 0.499997 0
    outer loop
      vertex -9 17.3205 0
      vertex -9 17.3205 7.5
      vertex -7.5 19.9186 7.5
    endloop
  endfacet
  facet normal 0.866024 0.500002 0
    outer loop
      vertex -11.5 21.6506 0
      vertex -9 17.3205 7.5
      vertex -9 17.3205 0
    endloop
  endfacet
  facet normal 0.866024 0.500002 -0
    outer loop
      vertex -11.5 21.6506 0
      vertex -11.5 21.6506 7.5
      vertex -9 17.3205 7.5
    endloop
  endfacet
  facet normal 0 1 0
    outer loop
      vertex -12.5 21.6506 0
      vertex -11.5 21.6506 7.5
      vertex -11.5 21.6506 0
    endloop
  endfacet
  facet normal 0 1 0
    outer loop
      vertex -12.5 21.6506 0
      vertex -12.5 21.6506 7.5
      vertex -11.5 21.6506 7.5
    endloop
  endfacet
  facet normal -0.866019 0.500011 0
    outer loop
      vertex -13 20.7846 0
      vertex -12.5 21.6506 7.5
      vertex -12.5 21.6506 0
    endloop
  endfacet
  facet normal -0.866019 0.500011 0
    outer loop
      vertex -13 20.7846 0
      vertex -13 20.7846 7.5
      vertex -12.5 21.6506 7.5
    endloop
  endfacet
  facet normal -0.866024 -0.500002 0
    outer loop
      vertex -10.5 16.4545 0
      vertex -13 20.7846 7.5
      vertex -13 20.7846 0
    endloop
  endfacet
  facet normal -0.866024 -0.500002 0
    outer loop
      vertex -10.5 16.4545 0
      vertex -10.5 16.4545 7.5
      vertex -13 20.7846 7.5
    endloop
  endfacet
  facet normal 0 1 0
    outer loop
      vertex -13.5 16.4545 0
      vertex -10.5 16.4545 7.5
      vertex -10.5 16.4545 0
    endloop
  endfacet
  facet normal 0 1 0
    outer loop
      vertex -13.5 16.4545 0
      vertex -13.5 16.4545 7.5
      vertex -10.5 16.4545 7.5
    endloop
  endfacet
  facet normal -0.866019 0.500011 0
    outer loop
      vertex -14 15.5885 0
      vertex -13.5 16.4545 7.5
      vertex -13.5 16.4545 0
    endloop
  endfacet
  facet normal -0.866019 0.500011 0
    outer loop
      vertex -14 15.5885 0
      vertex -14 15.5885 7.5
      vertex -13.5 16.4545 7.5
    endloop
  endfacet
  facet normal -0.866044 -0.499968 0
    outer loop
      vertex -13.5 14.7224 0
      vertex -14 15.5885 7.5
      vertex -14 15.5885 0
    endloop
  endfacet
  facet normal -0.866044 -0.499968 0
    outer loop
      vertex -13.5 14.7224 0
      vertex -13.5 14.7224 7.5
      vertex -14 15.5885 7.5
    endloop
  endfacet
  facet normal 0 -1 0
    outer loop
      vertex -9.49998 14.7224 0
      vertex -13.5 14.7224 7.5
      vertex -13.5 14.7224 0
    endloop
  endfacet
  facet normal 0 -1 0
    outer loop
      vertex -9.49998 14.7224 0
      vertex -9.49998 14.7224 7.5
      vertex -13.5 14.7224 7.5
    endloop
  endfacet
  facet normal -0.866024 -0.500002 0
    outer loop
      vertex -7.49997 11.2583 0
      vertex -9.49998 14.7224 7.5
      vertex -9.49998 14.7224 0
    endloop
  endfacet
  facet normal -0.866024 -0.500002 0
    outer loop
      vertex -7.49997 11.2583 0
      vertex -7.49997 11.2583 7.5
      vertex -9.49998 14.7224 7.5
    endloop
  endfacet
  facet normal 0 1 0
    outer loop
      vertex -14.5 11.2583 0
      vertex -7.49997 11.2583 7.5
      vertex -7.49997 11.2583 0
    endloop
  endfacet
  facet normal 0 1 0
    outer loop
      vertex -14.5 11.2583 0
      vertex -14.5 11.2583 7.5
      vertex -7.49997 11.2583 7.5
    endloop
  endfacet
  facet normal -0.866019 0.500011 0
    outer loop
      vertex -15 10.3923 0
      vertex -14.5 11.2583 7.5
      vertex -14.5 11.2583 0
    endloop
  endfacet
  facet normal -0.866019 0.500011 0
    outer loop
      vertex -15 10.3923 0
      vertex -15 10.3923 7.5
      vertex -14.5 11.2583 7.5
    endloop
  endfacet
  facet normal -0.866024 -0.500002 0
    outer loop
      vertex -14.5 9.52628 0
      vertex -15 10.3923 7.5
      vertex -15 10.3923 0
    endloop
  endfacet
  facet normal -0.866024 -0.500002 0
    outer loop
      vertex -14.5 9.52628 0
      vertex -14.5 9.52628 7.5
      vertex -15 10.3923 7.5
    endloop
  endfacet
  facet normal 0 -1 0
    outer loop
      vertex -6.49998 9.52628 0
      vertex -14.5 9.52628 7.5
      vertex -14.5 9.52628 0
    endloop
  endfacet
  facet normal 0 -1 0
    outer loop
      vertex -6.49998 9.52628 0
      vertex -6.49998 9.52628 7.5
      vertex -14.5 9.52628 7.5
    endloop
  endfacet
  facet normal -0.866025 -0.500001 0
    outer loop
      vertex -1.99998 1.73207 0
      vertex -6.49998 9.52628 7.5
      vertex -6.49998 9.52628 0
    endloop
  endfacet
  facet normal -0.866025 -0.500001 0
    outer loop
      vertex -1.99998 1.73207 0
      vertex -1.99998 1.73207 7.5
      vertex -6.49998 9.52628 7.5
    endloop
  endfacet
  facet normal -0.866025 0.500001 0
    outer loop
      vertex -2.5 0.866013 0
      vertex -1.99998 1.73207 7.5
      vertex -1.99998 1.73207 0
    endloop
  endfacet
  facet normal -0.866025 0.500001 0
    outer loop
      vertex -2.5 0.866013 0
      vertex -2.5 0.866013 7.5
      vertex -1.99998 1.73207 7.5
    endloop
  endfacet
  facet normal 0 1 0
    outer loop
      vertex -11.5 0.866013 0
      vertex -2.5 0.866013 7.5
      vertex -2.5 0.866013 0
    endloop
  endfacet
  facet normal 0 1 0
    outer loop
      vertex -11.5 0.866013 0
      vertex -11.5 0.866013 7.5
      vertex -2.5 0.866013 7.5
    endloop
  endfacet
  facet normal 0.866026 0.5 0
    outer loop
      vertex -15.5 7.79422 0
      vertex -11.5 0.866013 7.5
      vertex -11.5 0.866013 0
    endloop
  endfacet
  facet normal 0.866026 0.5 -0
    outer loop
      vertex -15.5 7.79422 0
      vertex -15.5 7.79422 7.5
      vertex -11.5 0.866013 7.5
    endloop
  endfacet
  facet normal 0 1 0
    outer loop
      vertex -16.5 7.79422 0
      vertex -15.5 7.79422 7.5
      vertex -15.5 7.79422 0
    endloop
  endfacet
  facet normal 0 1 0
    outer loop
      vertex -16.5 7.79422 0
      vertex -16.5 7.79422 7.5
      vertex -15.5 7.79422 7.5
    endloop
  endfacet
  facet normal -0.866027 0.499998 0
    outer loop
      vertex -17 6.92819 0
      vertex -16.5 7.79422 7.5
      vertex -16.5 7.79422 0
    endloop
  endfacet
  facet normal -0.866027 0.499998 0
    outer loop
      vertex -17 6.92819 0
      vertex -17 6.92819 7.5
      vertex -16.5 7.79422 7.5
    endloop
  endfacet
  facet normal -0.866025 -0.5 0
    outer loop
      vertex -13.5 0.866013 0
      vertex -17 6.92819 7.5
      vertex -17 6.92819 0
    endloop
  endfacet
  facet normal -0.866025 -0.5 0
    outer loop
      vertex -13.5 0.866013 0
      vertex -13.5 0.866013 7.5
      vertex -17 6.92819 7.5
    endloop
  endfacet
  facet normal 0 1 0
    outer loop
      vertex -17.5 0.866013 0
      vertex -13.5 0.866013 7.5
      vertex -13.5 0.866013 0
    endloop
  endfacet
  facet normal 0 1 0
    outer loop
      vertex -17.5 0.866013 0
      vertex -17.5 0.866013 7.5
      vertex -13.5 0.866013 7.5
    endloop
  endfacet
  facet normal 0.866026 0.499999 0
    outer loop
      vertex -19.5 4.33012 0
      vertex -17.5 0.866013 7.5
      vertex -17.5 0.866013 0
    endloop
  endfacet
  facet normal 0.866026 0.499999 -0
    outer loop
      vertex -19.5 4.33012 0
      vertex -19.5 4.33012 7.5
      vertex -17.5 0.866013 7.5
    endloop
  endfacet
  facet normal 0 1 0
    outer loop
      vertex -20.5 4.33012 0
      vertex -19.5 4.33012 7.5
      vertex -19.5 4.33012 0
    endloop
  endfacet
  facet normal 0 1 0
    outer loop
      vertex -20.5 4.33012 0
      vertex -20.5 4.33012 7.5
      vertex -19.5 4.33012 7.5
    endloop
  endfacet
  facet normal -0.866024 0.500002 0
    outer loop
      vertex -21 3.4641 0
      vertex -20.5 4.33012 7.5
      vertex -20.5 4.33012 0
    endloop
  endfacet
  facet normal -0.866024 0.500002 0
    outer loop
      vertex -21 3.4641 0
      vertex -21 3.4641 7.5
      vertex -20.5 4.33012 7.5
    endloop
  endfacet
  facet normal -0.866026 -0.499998 0
    outer loop
      vertex -19.5 0.866013 0
      vertex -21 3.4641 7.5
      vertex -21 3.4641 0
    endloop
  endfacet
  facet normal -0.866026 -0.499998 0
    outer loop
      vertex -19.5 0.866013 0
      vertex -19.5 0.866013 7.5
      vertex -21 3.4641 7.5
    endloop
  endfacet
  facet normal 0 1 0
    outer loop
      vertex -24.5 0.866013 0
      vertex -19.5 0.866013 7.5
      vertex -19.5 0.866013 0
    endloop
  endfacet
  facet normal 0 1 0
    outer loop
      vertex -24.5 0.866013 0
      vertex -24.5 0.866013 7.5
      vertex -19.5 0.866013 7.5
    endloop
  endfacet
  facet normal -0.866022 0.500005 0
    outer loop
      vertex -25 0 0
      vertex -24.5 0.866013 7.5
      vertex -24.5 0.866013 0
    endloop
  endfacet
  facet normal -0.866022 0.500005 0
    outer loop
      vertex -25 0 0
      vertex -25 0 7.5
      vertex -24.5 0.866013 7.5
    endloop
  endfacet
  facet normal -0.866022 -0.500005 0
    outer loop
      vertex -24.5 -0.866013 0
      vertex -25 0 7.5
      vertex -25 0 0
    endloop
  endfacet
  facet normal -0.866022 -0.500005 0
    outer loop
      vertex -24.5 -0.866013 0
      vertex -24.5 -0.866013 7.5
      vertex -25 0 7.5
    endloop
  endfacet
  facet normal 0 -1 0
    outer loop
      vertex -19.5 -0.866013 0
      vertex -24.5 -0.866013 7.5
      vertex -24.5 -0.866013 0
    endloop
  endfacet
  facet normal 0 -1 0
    outer loop
      vertex -19.5 -0.866013 0
      vertex -19.5 -0.866013 7.5
      vertex -24.5 -0.866013 7.5
    endloop
  endfacet
  facet normal -0.866026 0.499998 0
    outer loop
      vertex -21 -3.4641 0
      vertex -19.5 -0.866013 7.5
      vertex -19.5 -0.866013 0
    endloop
  endfacet
  facet normal -0.866026 0.499998 0
    outer loop
      vertex -21 -3.4641 0
      vertex -21 -3.4641 7.5
      vertex -19.5 -0.866013 7.5
    endloop
  endfacet
  facet normal -0.866024 -0.500002 0
    outer loop
      vertex -20.5 -4.33012 0
      vertex -21 -3.4641 7.5
      vertex -21 -3.4641 0
    endloop
  endfacet
  facet normal -0.866024 -0.500002 0
    outer loop
      vertex -20.5 -4.33012 0
      vertex -20.5 -4.33012 7.5
      vertex -21 -3.4641 7.5
    endloop
  endfacet
  facet normal 0 -1 0
    outer loop
      vertex -19.5 -4.33012 0
      vertex -20.5 -4.33012 7.5
      vertex -20.5 -4.33012 0
    endloop
  endfacet
  facet normal 0 -1 0
    outer loop
      vertex -19.5 -4.33012 0
      vertex -19.5 -4.33012 7.5
      vertex -20.5 -4.33012 7.5
    endloop
  endfacet
  facet normal 0.866026 -0.499999 0
    outer loop
      vertex -17.5 -0.866013 0
      vertex -19.5 -4.33012 7.5
      vertex -19.5 -4.33012 0
    endloop
  endfacet
  facet normal 0.866026 -0.499999 0
    outer loop
      vertex -17.5 -0.866013 0
      vertex -17.5 -0.866013 7.5
      vertex -19.5 -4.33012 7.5
    endloop
  endfacet
  facet normal 0 -1 0
    outer loop
      vertex -13.5 -0.866013 0
      vertex -17.5 -0.866013 7.5
      vertex -17.5 -0.866013 0
    endloop
  endfacet
  facet normal 0 -1 0
    outer loop
      vertex -13.5 -0.866013 0
      vertex -13.5 -0.866013 7.5
      vertex -17.5 -0.866013 7.5
    endloop
  endfacet
  facet normal -0.866025 0.5 0
    outer loop
      vertex -17 -6.92819 0
      vertex -13.5 -0.866013 7.5
      vertex -13.5 -0.866013 0
    endloop
  endfacet
  facet normal -0.866025 0.5 0
    outer loop
      vertex -17 -6.92819 0
      vertex -17 -6.92819 7.5
      vertex -13.5 -0.866013 7.5
    endloop
  endfacet
  facet normal -0.866027 -0.499998 0
    outer loop
      vertex -16.5 -7.79422 0
      vertex -17 -6.92819 7.5
      vertex -17 -6.92819 0
    endloop
  endfacet
  facet normal -0.866027 -0.499998 0
    outer loop
      vertex -16.5 -7.79422 0
      vertex -16.5 -7.79422 7.5
      vertex -17 -6.92819 7.5
    endloop
  endfacet
  facet normal 0 -1 0
    outer loop
      vertex -15.5 -7.79422 0
      vertex -16.5 -7.79422 7.5
      vertex -16.5 -7.79422 0
    endloop
  endfacet
  facet normal 0 -1 0
    outer loop
      vertex -15.5 -7.79422 0
      vertex -15.5 -7.79422 7.5
      vertex -16.5 -7.79422 7.5
    endloop
  endfacet
  facet normal 0.866026 -0.5 0
    outer loop
      vertex -11.5 -0.866013 0
      vertex -15.5 -7.79422 7.5
      vertex -15.5 -7.79422 0
    endloop
  endfacet
  facet normal 0.866026 -0.5 0
    outer loop
      vertex -11.5 -0.866013 0
      vertex -11.5 -0.866013 7.5
      vertex -15.5 -7.79422 7.5
    endloop
  endfacet
  facet normal 0 -1 0
    outer loop
      vertex -2.5 -0.866013 0
      vertex -11.5 -0.866013 7.5
      vertex -11.5 -0.866013 0
    endloop
  endfacet
  facet normal 0 -1 0
    outer loop
      vertex -2.5 -0.866013 0
      vertex -2.5 -0.866013 7.5
      vertex -11.5 -0.866013 7.5
    endloop
  endfacet
  facet normal -0.866025 -0.500001 0
    outer loop
      vertex -1.99998 -1.73207 0
      vertex -2.5 -0.866013 7.5
      vertex -2.5 -0.866013 0
    endloop
  endfacet
  facet normal -0.866025 -0.500001 0
    outer loop
      vertex -1.99998 -1.73207 0
      vertex -1.99998 -1.73207 7.5
      vertex -2.5 -0.866013 7.5
    endloop
  endfacet
  facet normal -0.866025 0.500001 0
    outer loop
      vertex -6.49998 -9.52628 0
      vertex -1.99998 -1.73207 7.5
      vertex -1.99998 -1.73207 0
    endloop
  endfacet
  facet normal -0.866025 0.500001 0
    outer loop
      vertex -6.49998 -9.52628 0
      vertex -6.49998 -9.52628 7.5
      vertex -1.99998 -1.73207 7.5
    endloop
  endfacet
  facet normal 0 1 0
    outer loop
      vertex -14.5 -9.52628 0
      vertex -6.49998 -9.52628 7.5
      vertex -6.49998 -9.52628 0
    endloop
  endfacet
  facet normal 0 1 0
    outer loop
      vertex -14.5 -9.52628 0
      vertex -14.5 -9.52628 7.5
      vertex -6.49998 -9.52628 7.5
    endloop
  endfacet
  facet normal -0.866024 0.500002 0
    outer loop
      vertex -15 -10.3923 0
      vertex -14.5 -9.52628 7.5
      vertex -14.5 -9.52628 0
    endloop
  endfacet
  facet normal -0.866024 0.500002 0
    outer loop
      vertex -15 -10.3923 0
      vertex -15 -10.3923 7.5
      vertex -14.5 -9.52628 7.5
    endloop
  endfacet
  facet normal -0.866019 -0.500011 0
    outer loop
      vertex -14.5 -11.2583 0
      vertex -15 -10.3923 7.5
      vertex -15 -10.3923 0
    endloop
  endfacet
  facet normal -0.866019 -0.500011 0
    outer loop
      vertex -14.5 -11.2583 0
      vertex -14.5 -11.2583 7.5
      vertex -15 -10.3923 7.5
    endloop
  endfacet
  facet normal 0 -1 0
    outer loop
      vertex -7.49997 -11.2583 0
      vertex -14.5 -11.2583 7.5
      vertex -14.5 -11.2583 0
    endloop
  endfacet
  facet normal 0 -1 0
    outer loop
      vertex -7.49997 -11.2583 0
      vertex -7.49997 -11.2583 7.5
      vertex -14.5 -11.2583 7.5
    endloop
  endfacet
  facet normal -0.866024 0.500002 0
    outer loop
      vertex -9.49998 -14.7224 0
      vertex -7.49997 -11.2583 7.5
      vertex -7.49997 -11.2583 0
    endloop
  endfacet
  facet normal -0.866024 0.500002 0
    outer loop
      vertex -9.49998 -14.7224 0
      vertex -9.49998 -14.7224 7.5
      vertex -7.49997 -11.2583 7.5
    endloop
  endfacet
  facet normal 0 1 0
    outer loop
      vertex -13.5 -14.7224 0
      vertex -9.49998 -14.7224 7.5
      vertex -9.49998 -14.7224 0
    endloop
  endfacet
  facet normal 0 1 0
    outer loop
      vertex -13.5 -14.7224 0
      vertex -13.5 -14.7224 7.5
      vertex -9.49998 -14.7224 7.5
    endloop
  endfacet
  facet normal -0.866044 0.499968 0
    outer loop
      vertex -14 -15.5885 0
      vertex -13.5 -14.7224 7.5
      vertex -13.5 -14.7224 0
    endloop
  endfacet
  facet normal -0.866044 0.499968 0
    outer loop
      vertex -14 -15.5885 0
      vertex -14 -15.5885 7.5
      vertex -13.5 -14.7224 7.5
    endloop
  endfacet
  facet normal -0.866019 -0.500011 0
    outer loop
      vertex -13.5 -16.4545 0
      vertex -14 -15.5885 7.5
      vertex -14 -15.5885 0
    endloop
  endfacet
  facet normal -0.866019 -0.500011 0
    outer loop
      vertex -13.5 -16.4545 0
      vertex -13.5 -16.4545 7.5
      vertex -14 -15.5885 7.5
    endloop
  endfacet
  facet normal 0 -1 0
    outer loop
      vertex -10.5 -16.4545 0
      vertex -13.5 -16.4545 7.5
      vertex -13.5 -16.4545 0
    endloop
  endfacet
  facet normal 0 -1 0
    outer loop
      vertex -10.5 -16.4545 0
      vertex -10.5 -16.4545 7.5
      vertex -13.5 -16.4545 7.5
    endloop
  endfacet
  facet normal -0.866024 0.500002 0
    outer loop
      vertex -13 -20.7846 0
      vertex -10.5 -16.4545 7.5
      vertex -10.5 -16.4545 0
    endloop
  endfacet
  facet normal -0.866024 0.500002 0
    outer loop
      vertex -13 -20.7846 0
      vertex -13 -20.7846 7.5
      vertex -10.5 -16.4545 7.5
    endloop
  endfacet
  facet normal -0.866019 -0.500011 0
    outer loop
      vertex -12.5 -21.6506 0
      vertex -13 -20.7846 7.5
      vertex -13 -20.7846 0
    endloop
  endfacet
  facet normal -0.866019 -0.500011 0
    outer loop
      vertex -12.5 -21.6506 0
      vertex -12.5 -21.6506 7.5
      vertex -13 -20.7846 7.5
    endloop
  endfacet
  facet normal 0 -1 0
    outer loop
      vertex -11.5 -21.6506 0
      vertex -12.5 -21.6506 7.5
      vertex -12.5 -21.6506 0
    endloop
  endfacet
  facet normal 0 -1 0
    outer loop
      vertex -11.5 -21.6506 0
      vertex -11.5 -21.6506 7.5
      vertex -12.5 -21.6506 7.5
    endloop
  endfacet
  facet normal 0.866024 -0.500002 0
    outer loop
      vertex -9 -17.3205 0
      vertex -11.5 -21.6506 7.5
      vertex -11.5 -21.6506 0
    endloop
  endfacet
  facet normal 0.866024 -0.500002 0
    outer loop
      vertex -9 -17.3205 0
      vertex -9 -17.3205 7.5
      vertex -11.5 -21.6506 7.5
    endloop
  endfacet
  facet normal -0.866027 -0.499997 0
    outer loop
      vertex -7.5 -19.9186 0
      vertex -9 -17.3205 7.5
      vertex -9 -17.3205 0
    endloop
  endfacet
  facet normal -0.866027 -0.499997 0
    outer loop
      vertex -7.5 -19.9186 0
      vertex -7.5 -19.9186 7.5
      vertex -9 -17.3205 7.5
    endloop
  endfacet
  facet normal 0 -1 0
    outer loop
      vertex -6.5 -19.9186 0
      vertex -7.5 -19.9186 7.5
      vertex -7.5 -19.9186 0
    endloop
  endfacet
  facet normal 0 -1 0
    outer loop
      vertex -6.5 -19.9186 0
      vertex -6.5 -19.9186 7.5
      vertex -7.5 -19.9186 7.5
    endloop
  endfacet
  facet normal 0.866019 -0.500011 0
    outer loop
      vertex -6 -19.0526 0
      vertex -6.5 -19.9186 7.5
      vertex -6.5 -19.9186 0
    endloop
  endfacet
  facet normal 0.866019 -0.500011 0
    outer loop
      vertex -6 -19.0526 0
      vertex -6 -19.0526 7.5
      vertex -6.5 -19.9186 7.5
    endloop
  endfacet
  facet normal 0.866032 0.499989 0
    outer loop
      vertex -8 -15.5884 0
      vertex -6 -19.0526 7.5
      vertex -6 -19.0526 0
    endloop
  endfacet
  facet normal 0.866032 0.499989 -0
    outer loop
      vertex -8 -15.5884 0
      vertex -8 -15.5884 7.5
      vertex -6 -19.0526 7.5
    endloop
  endfacet
  facet normal 0.866025 -0.5 0
    outer loop
      vertex -6 -12.1243 0
      vertex -8 -15.5884 7.5
      vertex -8 -15.5884 0
    endloop
  endfacet
  facet normal 0.866025 -0.5 0
    outer loop
      vertex -6 -12.1243 0
      vertex -6 -12.1243 7.5
      vertex -8 -15.5884 7.5
    endloop
  endfacet
  facet normal -0.866026 -0.499999 0
    outer loop
      vertex -2.5 -18.1865 0
      vertex -6 -12.1243 7.5
      vertex -6 -12.1243 0
    endloop
  endfacet
  facet normal -0.866026 -0.499999 0
    outer loop
      vertex -2.5 -18.1865 0
      vertex -2.5 -18.1865 7.5
      vertex -6 -12.1243 7.5
    endloop
  endfacet
  facet normal 0 -1 0
    outer loop
      vertex -1.5 -18.1865 0
      vertex -2.5 -18.1865 7.5
      vertex -2.5 -18.1865 0
    endloop
  endfacet
  facet normal 0 -1 0
    outer loop
      vertex -1.5 -18.1865 0
      vertex -1.5 -18.1865 7.5
      vertex -2.5 -18.1865 7.5
    endloop
  endfacet
  facet normal 0.866019 -0.500011 0
    outer loop
      vertex -1 -17.3205 0
      vertex -1.5 -18.1865 7.5
      vertex -1.5 -18.1865 0
    endloop
  endfacet
  facet normal 0.866019 -0.500011 0
    outer loop
      vertex -1 -17.3205 0
      vertex -1 -17.3205 7.5
      vertex -1.5 -18.1865 7.5
    endloop
  endfacet
  facet normal 0.866025 0.5 0
    outer loop
      vertex -5 -10.3923 0
      vertex -1 -17.3205 7.5
      vertex -1 -17.3205 0
    endloop
  endfacet
  facet normal 0.866025 0.5 -0
    outer loop
      vertex -5 -10.3923 0
      vertex -5 -10.3923 7.5
      vertex -1 -17.3205 7.5
    endloop
  endfacet
  facet normal 0.866026 -0.499999 0
    outer loop
      vertex -0.500015 -2.59807 0
      vertex -5 -10.3923 7.5
      vertex -5 -10.3923 0
    endloop
  endfacet
  facet normal 0.866026 -0.499999 0
    outer loop
      vertex -0.500015 -2.59807 0
      vertex -0.500015 -2.59807 7.5
      vertex -5 -10.3923 7.5
    endloop
  endfacet
  facet normal 0 -1 0
    outer loop
      vertex 0.500015 -2.59807 0
      vertex -0.500015 -2.59807 7.5
      vertex -0.500015 -2.59807 0
    endloop
  endfacet
  facet normal 0 -1 0
    outer loop
      vertex 0.500015 -2.59807 0
      vertex 0.500015 -2.59807 7.5
      vertex -0.500015 -2.59807 7.5
    endloop
  endfacet
  facet normal -0.866026 -0.499999 0
    outer loop
      vertex 5 -10.3923 0
      vertex 0.500015 -2.59807 7.5
      vertex 0.500015 -2.59807 0
    endloop
  endfacet
  facet normal -0.866026 -0.499999 0
    outer loop
      vertex 5 -10.3923 0
      vertex 5 -10.3923 7.5
      vertex 0.500015 -2.59807 7.5
    endloop
  endfacet
  facet normal -0.866025 0.5 0
    outer loop
      vertex 1 -17.3205 0
      vertex 5 -10.3923 7.5
      vertex 5 -10.3923 0
    endloop
  endfacet
  facet normal -0.866025 0.5 0
    outer loop
      vertex 1 -17.3205 0
      vertex 1 -17.3205 7.5
      vertex 5 -10.3923 7.5
    endloop
  endfacet
  facet normal -0.866019 -0.500011 0
    outer loop
      vertex 1.5 -18.1865 0
      vertex 1 -17.3205 7.5
      vertex 1 -17.3205 0
    endloop
  endfacet
  facet normal -0.866019 -0.500011 0
    outer loop
      vertex 1.5 -18.1865 0
      vertex 1.5 -18.1865 7.5
      vertex 1 -17.3205 7.5
    endloop
  endfacet
  facet normal 0 -1 0
    outer loop
      vertex 2.5 -18.1865 0
      vertex 1.5 -18.1865 7.5
      vertex 1.5 -18.1865 0
    endloop
  endfacet
  facet normal 0 -1 0
    outer loop
      vertex 2.5 -18.1865 0
      vertex 2.5 -18.1865 7.5
      vertex 1.5 -18.1865 7.5
    endloop
  endfacet
  facet normal 0.866026 -0.499999 0
    outer loop
      vertex 6 -12.1243 0
      vertex 2.5 -18.1865 7.5
      vertex 2.5 -18.1865 0
    endloop
  endfacet
  facet normal 0.866026 -0.499999 0
    outer loop
      vertex 6 -12.1243 0
      vertex 6 -12.1243 7.5
      vertex 2.5 -18.1865 7.5
    endloop
  endfacet
  facet normal -0.866025 -0.5 0
    outer loop
      vertex 8 -15.5884 0
      vertex 6 -12.1243 7.5
      vertex 6 -12.1243 0
    endloop
  endfacet
  facet normal -0.866025 -0.5 0
    outer loop
      vertex 8 -15.5884 0
      vertex 8 -15.5884 7.5
      vertex 6 -12.1243 7.5
    endloop
  endfacet
  facet normal -0.866032 0.499989 0
    outer loop
      vertex 6 -19.0526 0
      vertex 8 -15.5884 7.5
      vertex 8 -15.5884 0
    endloop
  endfacet
  facet normal -0.866032 0.499989 0
    outer loop
      vertex 6 -19.0526 0
      vertex 6 -19.0526 7.5
      vertex 8 -15.5884 7.5
    endloop
  endfacet
  facet normal -0.866019 -0.500011 0
    outer loop
      vertex 6.5 -19.9186 0
      vertex 6 -19.0526 7.5
      vertex 6 -19.0526 0
    endloop
  endfacet
  facet normal -0.866019 -0.500011 0
    outer loop
      vertex 6.5 -19.9186 0
      vertex 6.5 -19.9186 7.5
      vertex 6 -19.0526 7.5
    endloop
  endfacet
  facet normal 0 -1 0
    outer loop
      vertex 7.5 -19.9186 0
      vertex 6.5 -19.9186 7.5
      vertex 6.5 -19.9186 0
    endloop
  endfacet
  facet normal 0 -1 0
    outer loop
      vertex 7.5 -19.9186 0
      vertex 7.5 -19.9186 7.5
      vertex 6.5 -19.9186 7.5
    endloop
  endfacet
  facet normal 0.866027 -0.499997 0
    outer loop
      vertex 9 -17.3205 0
      vertex 7.5 -19.9186 7.5
      vertex 7.5 -19.9186 0
    endloop
  endfacet
  facet normal 0.866027 -0.499997 0
    outer loop
      vertex 9 -17.3205 0
      vertex 9 -17.3205 7.5
      vertex 7.5 -19.9186 7.5
    endloop
  endfacet
  facet normal -0.866024 -0.500002 0
    outer loop
      vertex 11.5 -21.6506 0
      vertex 9 -17.3205 7.5
      vertex 9 -17.3205 0
    endloop
  endfacet
  facet normal -0.866024 -0.500002 0
    outer loop
      vertex 11.5 -21.6506 0
      vertex 11.5 -21.6506 7.5
      vertex 9 -17.3205 7.5
    endloop
  endfacet
  facet normal 0 -1 0
    outer loop
      vertex 12.5 -21.6506 0
      vertex 11.5 -21.6506 7.5
      vertex 11.5 -21.6506 0
    endloop
  endfacet
  facet normal 0 -1 0
    outer loop
      vertex 12.5 -21.6506 0
      vertex 12.5 -21.6506 7.5
      vertex 11.5 -21.6506 7.5
    endloop
  endfacet
  facet normal 0.866019 -0.500011 0
    outer loop
      vertex 13 -20.7846 0
      vertex 12.5 -21.6506 7.5
      vertex 12.5 -21.6506 0
    endloop
  endfacet
  facet normal 0.866019 -0.500011 0
    outer loop
      vertex 13 -20.7846 0
      vertex 13 -20.7846 7.5
      vertex 12.5 -21.6506 7.5
    endloop
  endfacet
endsolid OpenSCAD_Model
